<svg viewBox="0 0 440 440" width="440" height="440" xmlns="http://www.w3.org/2000/svg">
  <rect width="440" height="440" fill="#fafaf8" rx="10"/>

  <line x1="220" y1="400" x2="220" y2="30" stroke="#d1d5db" stroke-width="1"/>
  <line x1="30" y1="220" x2="410" y2="220" stroke="#d1d5db" stroke-width="1"/>

  <circle cx="220" cy="220" r="3" fill="#9ca3af"/>

  <text x="220" y="22" text-anchor="middle" fill="#6b7280" font-family="monospace" font-size="12">Cosine Similarity</text>

  <line x1="220" y1="220" x2="350" y2="70" stroke="#16a34a" stroke-width="2.5"/>
  <polygon points="347,72 356,65 352,76" fill="#16a34a"/>
  <text x="358" y="68" fill="#16a34a" font-family="monospace" font-size="14">A</text>

  <line x1="220" y1="220" x2="380" y2="130" stroke="#2563eb" stroke-width="2.5"/>
  <polygon points="377,132 386,125 382,136" fill="#2563eb"/>
  <text x="388" y="128" fill="#2563eb" font-family="monospace" font-size="14">B</text>

  <path d="M 270,175 A 65,65 0 0,1 285,195" fill="none" stroke="#d97706" stroke-width="2"/>
  <text x="293" y="182" fill="#d97706" font-family="monospace" font-size="14">small angle</text>

  <line x1="220" y1="220" x2="90" y2="350" stroke="#dc2626" stroke-width="2.5"/>
  <polygon points="93,347 84,354 88,343" fill="#dc2626"/>
  <text x="68" y="368" fill="#dc2626" font-family="monospace" font-size="14">C</text>

  <path d="M 270,175 A 65,65 0 0,1 180,270" fill="none" stroke="#dc2626" stroke-width="1.5" stroke-dasharray="4,3" opacity="0.5"/>
  <text x="155" y="290" fill="#dc2626" font-family="monospace" font-size="11">large angle</text>

  <text x="220" y="425" text-anchor="middle" fill="#6b7280" font-family="monospace" font-size="11">only direction matters, length is ignored</text>
</svg>
