<svg width="101" height="61" viewBox="0 0 101 61" fill="none" xmlns="http://www.w3.org/2000/svg">
<path d="M28.5616 22.0064C28.5616 23.237 28.6947 24.2347 28.9275 24.9664C29.1935 25.6981 29.5261 26.4963 29.9918 27.3611C30.1581 27.6272 30.2246 27.8932 30.2246 28.126C30.2246 28.4586 30.025 28.7912 29.5926 29.1238L27.4973 30.5207C27.198 30.7202 26.8987 30.82 26.6326 30.82C26.3 30.82 25.9674 30.6537 25.6348 30.3544C25.1692 29.8555 24.7701 29.3234 24.4375 28.7912C24.1049 28.2258 23.7723 27.5939 23.4065 26.8289C20.8123 29.8888 17.5529 31.4187 13.6283 31.4187C10.8346 31.4187 8.60623 30.6205 6.97654 29.024C5.34686 27.4276 4.51538 25.299 4.51538 22.6383C4.51538 19.8113 5.51315 17.5164 7.54195 15.787C9.57074 14.0575 12.2647 13.1928 15.6904 13.1928C16.8212 13.1928 17.9853 13.2925 19.2158 13.4588C20.4464 13.6251 21.7103 13.8912 23.0406 14.1905V11.7626C23.0406 9.23494 22.5085 7.47221 21.4775 6.44118C20.4132 5.41015 18.6172 4.91127 16.0562 4.91127C14.8922 4.91127 13.6949 5.0443 12.4643 5.34363C11.2337 5.64296 10.0364 6.00881 8.87231 6.47444C8.34016 6.70725 7.94106 6.84029 7.70824 6.90681C7.47543 6.97332 7.30913 7.00658 7.1761 7.00658C6.71047 7.00658 6.47766 6.67399 6.47766 5.97556V4.34586C6.47766 3.81372 6.54418 3.41461 6.71047 3.1818C6.87677 2.94899 7.1761 2.71617 7.64172 2.48336C8.80579 1.8847 10.2027 1.38582 11.8324 0.986708C13.462 0.554341 15.1915 0.354787 17.0208 0.354787C20.9786 0.354787 23.8721 1.25278 25.7346 3.04876C27.5639 4.84475 28.4951 7.57199 28.4951 11.2305V22.0064H28.5616ZM15.0585 27.0618C16.156 27.0618 17.2868 26.8622 18.4841 26.4631C19.6815 26.064 20.7458 25.3323 21.6438 24.3345C22.1759 23.7026 22.575 23.0042 22.7746 22.2059C22.9741 21.4077 23.1071 20.4432 23.1071 19.3124V17.9155C22.1426 17.6827 21.1116 17.4832 20.0473 17.3501C18.983 17.2171 17.952 17.1506 16.921 17.1506C14.6926 17.1506 13.0629 17.5829 11.9654 18.4809C10.8678 19.3789 10.3357 20.6428 10.3357 22.3057C10.3357 23.8689 10.7348 25.033 11.5663 25.8312C12.3645 26.6626 13.5286 27.0618 15.0585 27.0618ZM41.7654 30.6537C41.1668 30.6537 40.7677 30.5539 40.5016 30.3211C40.2355 30.1216 40.0027 29.656 39.8032 29.024L31.9873 3.31484C31.7877 2.64966 31.688 2.21729 31.688 1.98448C31.688 1.45233 31.954 1.153 32.4862 1.153H35.7456C36.3775 1.153 36.8098 1.25278 37.0427 1.48559C37.3087 1.68515 37.5083 2.15077 37.7078 2.78269L43.2953 24.8001L48.4837 2.78269C48.65 2.11751 48.8496 1.68515 49.1157 1.48559C49.3817 1.28604 49.8474 1.153 50.446 1.153H53.1067C53.7387 1.153 54.171 1.25278 54.4371 1.48559C54.7032 1.68515 54.936 2.15077 55.069 2.78269L60.3239 25.0662L66.0777 2.78269C66.2773 2.11751 66.5101 1.68515 66.7429 1.48559C67.009 1.28604 67.4414 1.153 68.04 1.153H71.1331C71.6652 1.153 71.9646 1.41907 71.9646 1.98448C71.9646 2.15077 71.9313 2.31707 71.8981 2.51662C71.8648 2.71617 71.7983 2.98225 71.6652 3.3481L63.6498 29.0573C63.4503 29.7225 63.2175 30.1548 62.9514 30.3544C62.6853 30.5539 62.253 30.687 61.6876 30.687H58.8273C58.1954 30.687 57.763 30.5872 57.4969 30.3544C57.2309 30.1216 56.998 29.6892 56.865 29.024L51.7099 7.57199L46.588 28.9908C46.4217 29.656 46.2221 30.0883 45.9561 30.3211C45.69 30.5539 45.2244 30.6537 44.6257 30.6537H41.7654ZM84.5032 31.5517C82.7738 31.5517 81.0443 31.3522 79.3813 30.9531C77.7184 30.5539 76.4213 30.1216 75.5565 29.6227C75.0244 29.3234 74.6586 28.9908 74.5255 28.6914C74.3925 28.3921 74.326 28.0595 74.326 27.7602V26.064C74.326 25.3655 74.592 25.033 75.0909 25.033C75.2905 25.033 75.49 25.0662 75.6896 25.1327C75.8891 25.1992 76.1885 25.3323 76.5211 25.4653C77.6519 25.9642 78.8824 26.3633 80.1796 26.6294C81.5099 26.8955 82.807 27.0285 84.1374 27.0285C86.2327 27.0285 87.8624 26.6626 88.9932 25.9309C90.124 25.1992 90.7226 24.135 90.7226 22.7713C90.7226 21.8401 90.4233 21.0751 89.8247 20.4432C89.226 19.8113 88.0952 19.2459 86.4655 18.7137L81.6429 17.2171C79.215 16.4521 77.4191 15.3213 76.3215 13.8247C75.224 12.3613 74.6586 10.7316 74.6586 9.00212C74.6586 7.60525 74.9579 6.37466 75.5565 5.31038C76.1552 4.24609 76.9534 3.31484 77.9512 2.58314C78.949 1.81818 80.0798 1.25278 81.4101 0.853672C82.7405 0.454564 84.1374 0.288269 85.6008 0.288269C86.3325 0.288269 87.0974 0.321528 87.8291 0.421305C88.5941 0.521082 89.2925 0.654118 89.9909 0.787154C90.6561 0.953449 91.288 1.11974 91.8867 1.3193C92.4854 1.51885 92.951 1.71841 93.2836 1.91796C93.7492 2.18403 94.0818 2.4501 94.2813 2.74943C94.4809 3.01551 94.5807 3.38135 94.5807 3.84698V5.41015C94.5807 6.10859 94.3146 6.47444 93.8157 6.47444C93.5497 6.47444 93.1173 6.3414 92.5519 6.07533C90.6561 5.2106 88.5275 4.77823 86.1662 4.77823C84.2704 4.77823 82.7738 5.07756 81.7427 5.70948C80.7117 6.3414 80.1796 7.30591 80.1796 8.66953C80.1796 9.60078 80.5121 10.399 81.1773 11.0309C81.8425 11.6628 83.0731 12.2948 84.8358 12.8602L89.5586 14.3568C91.9532 15.1218 93.6827 16.1861 94.7137 17.5497C95.7447 18.9133 96.2436 20.4765 96.2436 22.2059C96.2436 23.6361 95.9443 24.9332 95.3789 26.064C94.7802 27.1948 93.982 28.1926 92.951 28.9908C91.92 29.8222 90.6894 30.4209 89.2592 30.8533C87.7626 31.3189 86.1994 31.5517 84.5032 31.5517Z" fill="white"/>
<path fill-rule="evenodd" clip-rule="evenodd" d="M90.7891 47.7155C79.8469 55.7975 63.9491 60.0879 50.2797 60.0879C31.1225 60.0879 13.8611 53.0037 0.82363 41.23C-0.207397 40.2988 0.723853 39.0349 1.95443 39.7666C16.0562 47.9483 33.4506 52.9039 51.4437 52.9039C63.5833 52.9039 76.9201 50.3763 89.1926 45.1878C91.0219 44.3564 92.5851 46.3852 90.7891 47.7155Z" fill="#FF9900"/>
<path fill-rule="evenodd" clip-rule="evenodd" d="M95.3456 42.5271C93.9487 40.7311 86.0997 41.6624 82.541 42.0947C81.4767 42.2278 81.3104 41.2965 82.2749 40.5981C88.5275 36.2079 98.8045 37.4717 100.002 38.9351C101.199 40.4318 99.6692 50.7088 93.8157 55.6311C92.9177 56.3961 92.053 55.997 92.4521 54.9992C93.7824 51.7066 96.7425 44.2898 95.3456 42.5271Z" fill="#FF9900"/>
</svg>
