<svg xmlns="http://www.w3.org/2000/svg" width="101" height="39" fill="none" viewBox="0 0 101 39"><path fill="#000" d="M69.3431 3.46957L69.3209 3.25531L68.9738 3.285L68.9958 3.49906L69.3431 3.46957ZM71.6769 9.08246L71.6843 9.20062L71.9281 9.17855C71.9207 9.10472 71.9501 8.98656 72.0019 8.8389L71.9796 8.62465C71.8763 8.63207 71.7728 8.78715 71.6769 9.08246ZM62.5705 16.1504C62.5558 15.951 61.9353 15.1756 60.7093 13.8092C60.6873 13.5582 61.1082 13.1815 61.9722 12.6868L64.439 10.5375C64.9929 9.83578 65.3179 8.69847 65.414 7.118L65.3843 6.75609C65.2884 5.66312 64.4982 4.78422 62.999 4.11215C62.1126 3.5139 60.5173 3.18148 58.213 3.1225C56.3076 3.285 53.8187 3.96429 50.7537 5.1682C49.9117 5.77386 48.9517 6.37953 47.8734 6.985L47.888 7.16976C47.9546 7.16234 48.058 7.12543 48.1761 7.04418C48.3017 7.02933 48.3755 7.08851 48.383 7.20668L48.5675 7.11058L48.6562 7.10316L48.6636 7.18441C48.671 7.2805 48.0062 7.80492 46.6621 8.74281L46.7656 8.9348L46.6769 8.94222L46.4552 8.86097C46.4626 8.92738 46.3667 8.97172 46.182 8.98656L46.1894 9.06781L46.4037 9.33363C46.3373 9.34105 46.2337 9.31156 46.0935 9.2598C45.7832 9.28929 45.4804 9.45179 45.1777 9.76195L45.3033 9.21547C45.7537 7.27308 46.0638 5.55219 46.2263 4.06039L46.2043 3.96429C45.8941 3.76488 45.5912 3.48422 45.3105 3.12972C45.3179 2.90082 45.3179 2.76801 45.3105 2.73832L45.2884 2.65707L45.1998 2.67933C44.225 4.14164 42.349 6.63793 39.5646 10.1682C37.4451 12.6793 36.3519 14.0752 36.2855 14.3559C35.4214 15.2494 35.0078 15.7887 35.0521 15.9733C34.8232 16.1209 34.7271 16.2686 34.764 16.4311C34.6976 16.4459 34.6533 16.4239 34.6384 16.3573C34.2693 16.9555 33.7226 17.3395 32.9916 17.5094L32.2234 17.6868C32.1201 17.7088 32.0683 17.7827 32.0757 17.9082L32.0978 18.0043L32.3859 17.9377L32.4082 18.019L31.7582 18.2702L30.606 18.536L30.0003 18.5729C29.9117 18.6616 30.4804 18.5657 30.2589 18.6172L29.5056 18.7946C29.0476 18.8979 28.7966 18.861 28.7523 18.6764L28.6636 18.6985C28.6785 18.7797 28.6857 18.8389 28.671 18.8905L28.6267 18.7059L28.021 18.8461C27.9767 18.5657 27.157 17.5463 25.5691 15.7887C25.5396 15.4489 26.1007 14.9539 27.2457 14.3116L30.4804 11.468C31.2042 10.5375 31.6326 9.04554 31.773 6.99242L31.7287 6.51234C31.6031 5.06488 30.5543 3.89789 28.5824 2.99691C27.4154 2.20668 25.3179 1.78558 22.29 1.71918C19.7789 1.93343 16.4996 2.82699 12.4671 4.38539C11.3593 5.19027 10.0964 5.98793 8.67847 6.77816L8.70054 7.02933C8.79663 7.02191 8.92202 6.97035 9.0771 6.88168C9.2396 6.86683 9.32827 6.94066 9.34311 7.08851L9.59409 6.94808L9.71968 6.94066L9.7271 7.05883C9.73452 7.17699 8.85562 7.8639 7.07573 9.11937L7.21597 9.34105L7.09058 9.34847L6.81714 9.25238C6.82456 9.32621 6.69897 9.37797 6.44058 9.40004L6.45522 9.53304L6.75073 9.85804C6.65483 9.86547 6.52183 9.83578 6.3519 9.77679C5.77593 9.82855 5.2146 10.242 4.66069 11.025L4.80093 11.2465C5.28101 10.8034 5.56167 10.5819 5.64292 10.5745L5.67241 10.9364C5.59116 10.9438 5.46558 10.9953 5.29585 11.084L5.59858 11.542C6.17048 10.9238 6.81819 10.3803 7.52632 9.92445C7.87339 10.0131 8.05796 10.1239 8.06538 10.242L8.3312 10.22C10.2367 8.80922 12.1201 7.79008 13.9886 7.16234L14.0107 7.41332C13.6636 7.93031 13.4273 8.19633 13.3017 8.21097C13.3166 8.38832 13.3755 8.5434 13.4863 8.6764C13.516 8.99398 12.6666 11.1358 10.9457 15.0944C7.03882 24.2967 3.75952 31.1061 1.09351 35.508C1.10073 35.5965 1.15249 35.7147 1.24858 35.8625C1.90581 35.7075 2.31948 35.545 2.49663 35.3897L2.63706 35.375L2.65913 35.6262L2.90288 35.6039L3.15405 35.4637C3.16147 35.5375 3.24272 35.5745 3.41245 35.5596L3.43472 35.8108C3.45679 36.0545 3.31655 36.4237 3.02104 36.9334C2.75522 37.2362 2.46714 37.8713 2.1644 38.8389L2.17163 38.9571L2.41538 38.9348C3.47905 37.7457 4.28394 36.5788 4.83784 35.4414C7.9398 34.533 10.3033 33.6395 11.9427 32.7606C13.5898 32.6202 14.8453 32.1844 15.7021 31.468L15.6873 31.3352L15.0669 31.5198L14.9265 31.5346L14.9117 31.4016C16.123 31.217 16.9576 30.951 17.4228 30.5819C19.7789 28.7649 21.5587 27.4799 22.7626 26.7192C25.2367 24.9024 26.8468 23.1297 27.5779 21.409C27.7162 21.3789 27.8541 21.3468 27.9916 21.3129C28.3386 21.2983 28.5306 21.2909 28.5824 21.276C28.5675 21.2096 28.5972 21.1727 28.6636 21.1578C29.2175 21.0989 28.9517 21.1948 29.3062 21.1135L30.2367 20.8995C30.1777 20.9141 30.1554 20.9438 30.1703 21.0028L30.3105 20.9141C30.281 20.9141 30.2589 20.9069 30.2367 20.8995L30.3917 20.8625L30.3179 20.9069C30.4214 20.9215 30.5322 20.9141 30.6578 20.8846L30.7242 21.1578L26.4923 27.8862L25.5542 29.0604L25.0964 30.5965L25.1851 30.5745L25.6429 30.3825L25.4953 30.9807L25.5396 31.1579L25.665 31.3129C25.606 31.3278 25.5839 31.3647 25.5986 31.4311L25.6208 31.5272L25.8128 31.4829C26.0935 31.2391 26.2117 31.0176 26.1673 30.8182C26.4701 30.8698 26.6695 30.892 26.773 30.8625L26.7951 30.9584C26.6105 31.0028 26.5144 31.1504 26.4996 31.4016L26.5218 31.4977L26.6251 31.4754C28.1615 29.7989 31.9281 24.0604 34.9488 20.1682C34.8527 19.7473 36.4257 19.1637 39.6753 18.4104L39.7789 18.3883C39.897 18.8979 39.6459 20.1313 39.0255 22.0885C38.6267 23.2702 38.4347 23.9202 38.4642 24.0235C37.9472 25.5965 37.7035 26.4459 37.733 26.5789L36.5808 30.3528C35.8349 32.2879 35.2664 34.319 34.8675 36.4608C34.9339 36.4459 35.0373 36.4534 35.1851 36.4903L35.3474 36.3498C35.3623 36.4164 35.4066 36.4385 35.473 36.4237L35.4066 36.1504L35.9087 36.1358C36.0564 36.0989 36.182 35.9141 36.2855 35.5745C36.2632 35.0649 36.3667 34.7916 36.5957 34.7325C36.9058 33.5213 37.0978 32.9157 37.1644 32.8934C37.4523 31.6897 37.6666 31.0028 37.8068 30.8328C38.2427 29.2672 38.5601 28.4621 38.7669 28.4104L38.8113 28.6026L38.4937 29.4223C37.9398 31.8817 37.3785 33.8241 36.8099 35.2495L36.9724 35.9584L37.0757 35.9364C38.4494 32.9821 40.4287 27.1328 43.0062 18.3883C43.0802 17.6202 43.4494 17.0219 44.1068 16.601L43.9589 16.4459L43.9369 16.3647C44.2324 16.2983 44.439 16.1801 44.5572 16.0176C44.5425 15.951 44.2839 15.8551 43.7818 15.7221L45.0669 10.2125C45.3474 9.96136 45.5099 9.82855 45.5617 9.82855L45.5839 10.1092C45.5173 10.1164 45.414 10.1534 45.2959 10.2346L45.5396 10.5819C45.9826 10.1018 46.4626 9.68812 46.9871 9.34105C47.2529 9.41488 47.3859 9.50355 47.4007 9.59222L47.5927 9.57738C49.055 8.50648 50.4878 7.73832 51.8984 7.27308L51.9132 7.45765C51.6548 7.84906 51.4775 8.04847 51.3814 8.0559C51.3962 8.1889 51.4332 8.30707 51.4996 8.41039C51.5218 8.65414 50.8867 10.2789 49.5869 13.2922C46.6177 20.2715 44.1289 25.434 42.1052 28.7871C42.1126 28.8536 42.157 28.9422 42.2382 29.0604C42.733 28.9422 43.0505 28.8166 43.1761 28.6985L43.2648 28.6911L43.2796 28.8758L43.4863 28.861L43.671 28.7649C43.6783 28.8166 43.7449 28.8389 43.8705 28.8315L43.8851 29.0309C43.9 29.208 43.7966 29.4887 43.5675 29.8727C43.3535 30.1018 43.1318 30.5819 42.8955 31.3129L42.9029 31.409L43.0949 31.3942C43.9 30.4932 44.5128 29.6069 44.9339 28.7354C47.2898 28.0412 49.0845 27.3692 50.3253 26.7043C51.5882 26.5936 52.541 26.2686 53.191 25.7221L53.1835 25.6262L52.7035 25.7664L52.6001 25.7739L52.5927 25.6778C53.5085 25.545 54.1511 25.3381 54.4982 25.0649C56.2855 23.6911 57.6371 22.7088 58.5529 22.1328C61.4037 20.0575 62.733 18.0633 62.5705 16.1504ZM62.0832 16.276L62.1496 17.0219C62.0609 17.2067 61.965 17.3026 61.8763 17.31L61.7656 16.0397C61.9722 16.1135 62.0757 16.1873 62.0832 16.276ZM6.15991 10.2643L6.03433 10.2715L6.01226 10.0426L6.52183 9.99828L6.52925 10.1164C6.448 10.1239 6.32241 10.1682 6.15991 10.2643ZM3.67105 35.1608C3.37554 35.028 3.10972 34.9762 2.88081 34.9983L2.85112 34.6364C2.83647 34.4961 2.91772 34.4 3.09487 34.3631C3.25737 34.3485 3.35347 34.4666 3.36812 34.703C3.79663 34.1786 4.03296 33.9127 4.0773 33.9053L4.35054 34.0161C4.26187 34.7547 4.03296 35.1313 3.67105 35.1608ZM30.2664 7.33949C30.1408 7.35433 29.8896 6.96293 29.5277 6.18734L29.5056 5.95844C29.7419 5.93637 29.9857 6.32035 30.2441 7.11058L30.2664 7.33949ZM29.9117 4.5848L29.8083 4.82855L26.1968 3.32191C28.6044 3.40316 29.8453 3.82406 29.9117 4.5848ZM14.6607 17.6793L14.1511 17.7237L14.1289 17.4946L14.6384 17.4504L14.6607 17.6793ZM14.247 9.81371L14.3726 9.80629L14.4021 10.1682C14.2839 10.1756 14.1289 10.3528 13.9369 10.6926L13.9146 10.4414C14.1437 10.1682 14.2619 9.96136 14.247 9.81371ZM13.1761 12.3395L13.2205 12.8196L13.0949 12.827L13.0505 12.3469L13.1761 12.3395ZM12.6148 13.2407L12.8585 13.2184C12.8365 13.6172 12.7257 13.8315 12.5263 13.8461L12.4007 13.8536C12.5558 13.5877 12.6296 13.3809 12.6148 13.2407ZM12.1939 14.4961L12.3341 14.4813L12.3416 14.5995L12.1126 14.9836L11.8689 15.0057L11.8615 14.8875C12.1052 14.8655 12.216 14.7399 12.1939 14.4961ZM11.7802 15.6262L11.7064 16.2317L11.5808 16.2391L11.5292 15.6409L11.7802 15.6262ZM7.63706 27.4061C7.47456 28.2332 7.29722 28.6541 7.11265 28.669L7.10522 28.5508C7.06089 28.1446 7.23823 27.7606 7.63706 27.4061ZM6.87632 29.053L6.88374 29.1711C6.89839 29.3336 6.82456 29.4297 6.66206 29.437L6.65483 29.3188C6.63999 29.1786 6.71382 29.0899 6.87632 29.053ZM6.65483 32.4725L7.03882 32.4356L7.05347 32.5686C6.95757 32.5758 6.83198 32.6276 6.6769 32.7162L6.43315 32.7383C6.41831 32.6129 6.49956 32.5168 6.65464 32.4725H6.65483ZM17.5853 29.0973C15.4287 30.1608 14.1583 30.8846 13.7818 31.2612C11.448 32.0737 10.2884 32.5758 10.3105 32.7752C8.2353 33.5952 6.8689 34.2008 6.21167 34.5774C6.05659 34.5922 5.83491 34.533 5.5396 34.4C5.50269 33.9791 5.69468 33.6395 6.10073 33.3662C6.46265 33.3366 6.80972 33.3883 7.14214 33.5286C7.52632 33.3291 8.19839 33.1077 9.15112 32.8713L9.12886 32.6202L8.36089 32.6868C8.45679 32.5537 9.19526 32.2067 10.5837 31.6454L10.9679 31.6084L10.9753 31.7266C10.3179 31.7856 9.95601 31.9778 9.87476 32.3248C9.8896 32.4799 9.97827 32.5463 10.1408 32.5317C10.6355 32.2213 10.8792 32.0368 10.8718 31.985C11.8099 31.8078 14.4021 30.4489 18.6488 27.9157L18.671 28.1446C18.6785 28.2553 18.3166 28.5655 17.5853 29.0973ZM11.0712 31.2391C11.6917 31.1873 12.2234 30.9364 12.6666 30.5006C12.8437 30.4858 12.9398 30.5522 12.9472 30.7073C12.6443 30.737 12.0609 30.9879 11.2117 31.4754L11.0861 31.4829L11.0712 31.2391ZM21.5808 23.1666L18.3238 25.7444C15.9013 27.3323 14.6015 28.1297 14.4169 28.1446C10.5617 30.2643 8.16147 31.3647 7.23081 31.4459L7.09058 31.4606C7.20874 31.025 8.92202 27.5168 12.2457 20.9141C13.708 20.7885 16.0123 20.1092 19.1511 18.8684L19.9191 18.8018C21.507 18.6616 22.696 18.9717 23.4791 19.7104L23.5232 20.1903C22.9324 21.8891 22.2826 22.8787 21.5808 23.1666ZM15.2146 19.5848L15.739 19.5405L15.7462 19.6586L15.222 19.703L15.2146 19.5848ZM22.5779 18.3366L22.9621 18.2996C23.3166 18.4696 23.5011 18.6172 23.516 18.7502L23.5232 18.8684C23.1835 18.8979 22.866 18.7207 22.5779 18.3366ZM23.6193 12.4061C23.2796 12.8121 22.349 13.5065 20.8275 14.4813C20.3253 14.5256 18.4568 15.2494 15.222 16.6674C15.0603 16.5935 14.8821 16.563 14.705 16.5789L14.6828 16.3498C14.6458 15.8846 14.8527 15.3012 15.3105 14.5922C15.5617 13.2627 15.8349 12.502 16.1378 12.3174L18.8335 6.25394C18.8039 5.87718 19.38 5.5891 20.5617 5.38969L20.9457 5.35277L20.9753 5.70004C22.1347 5.52269 22.8585 5.41937 23.1392 5.39711C25.281 5.21254 26.3962 5.64828 26.4849 6.68968L26.7287 6.66742L26.6769 6.05453L26.9427 6.03226C27.5705 6.37953 27.9103 6.80043 27.9546 7.29515C27.9841 7.635 27.7996 8.0559 27.408 8.55824C27.2457 8.57289 27.1496 8.45472 27.1347 8.2184L26.8689 8.24066L26.8099 8.97914C25.7242 10.6039 24.9339 11.4385 24.4464 11.4828C24.0033 12.0959 23.73 12.3987 23.6193 12.4061ZM25.2736 16.6528C25.0521 16.5049 24.8748 16.4385 24.7419 16.4459L24.7123 16.084L24.956 16.0619L25.4953 16.3795C25.5173 16.5493 25.4435 16.6379 25.2736 16.6528ZM26.9871 18.6836C27.2234 18.7797 27.3638 18.883 27.3933 18.9791L27.2751 19.0086L27.2826 19.0161C27.2603 19.0161 27.2308 19.0235 27.2085 19.0309L27.0314 19.1711L26.9871 18.6836ZM27.1496 19.703L27.1275 19.6069L27.4376 19.533L27.4597 19.6291L27.1496 19.703ZM27.8955 20.5375C28.213 20.4858 28.3681 20.4637 28.9589 20.3307L28.9812 20.4268L27.8585 20.6852C27.8734 20.6334 27.888 20.5819 27.8955 20.5375ZM28.9886 21.0028C28.516 21.0471 28.6193 20.9879 27.866 21.1578L27.8437 21.062L28.7818 20.759L29.2324 20.6557L29.2765 20.8328C29.0771 20.8772 29.225 20.8772 28.9886 21.0028ZM29.9857 20.7664C29.8748 20.7959 29.7863 20.7444 29.7345 20.6188L30.0226 20.5522C30.148 20.5227 30.2292 20.5744 30.2589 20.7L29.9857 20.7664ZM32.6886 17.8565L32.6666 17.7606L33.1318 17.6498L33.1761 17.827L32.6886 17.8565ZM35.5765 35.567C35.606 35.434 35.6134 35.3381 35.5986 35.2715L35.7021 35.2495C35.8275 35.22 35.9013 35.2643 35.931 35.3825L35.9531 35.4784L35.5765 35.567ZM37.6001 18.6172L37.3933 18.5803C37.0609 18.7133 36.7802 18.8092 36.5513 18.861L36.3593 18.9053C36.2486 18.9348 36.1599 18.8905 36.1156 18.7723L37.4671 18.4621L37.9103 18.2553L38.058 18.4252C37.8437 18.4696 37.6886 18.536 37.6001 18.6172ZM38.6414 18.2848L38.6193 18.1889C38.6857 18.1741 38.7744 18.1225 38.8705 18.0264L39.8304 17.8049L39.8527 17.9008C39.3431 18.0264 38.9369 18.152 38.6414 18.2848ZM38.7892 16.3424C38.7226 16.3573 38.6341 16.4164 38.5232 16.5049C38.5085 16.4385 38.3755 16.4385 38.1244 16.4977C38.0802 16.3129 38.7892 16.0545 40.2589 15.7147L40.4656 15.6703L40.5099 15.8477C39.4759 16.1504 38.9 16.3203 38.7892 16.3424ZM41.3742 13.5508C41.2707 14.725 40.8572 15.3899 40.1259 15.5596L40.1039 15.4637L39.4539 15.7147L39.1658 15.7813C39.0181 15.8182 38.8851 15.8108 38.7669 15.7739L38.708 15.5153C38.6857 15.4194 39.6238 14.1194 41.5293 11.6231L41.7507 11.6602C41.832 11.9998 41.7064 12.6276 41.3742 13.5508ZM45.9457 9.63636L45.8572 9.64379L45.8423 9.45922L46.2263 9.4223L46.2337 9.5182C46.1673 9.53304 46.0712 9.56996 45.9457 9.63636ZM44.0625 28.5508C43.8408 28.4473 43.6414 28.4032 43.4716 28.4178L43.4494 28.1371C43.4419 28.0412 43.5011 27.9746 43.6267 27.9377C43.7523 27.9231 43.8261 28.0116 43.8408 28.2037C44.1583 27.7975 44.3357 27.5907 44.3726 27.5907L44.572 27.6719C44.4982 28.2332 44.3283 28.5286 44.0625 28.5508ZM64.2544 7.42816C64.1584 7.43558 63.9738 7.14008 63.6857 6.54183L63.671 6.35726C63.8556 6.34242 64.0476 6.6305 64.2396 7.22132L64.2544 7.42816ZM63.9886 5.31586L63.9 5.50785L61.1673 4.36312C62.9916 4.4223 63.9369 4.73988 63.9886 5.31586ZM52.4007 15.2643L52.0166 15.3012L52.0019 15.1164L52.3859 15.087L52.4007 15.2643ZM52.0832 9.28929L52.1865 9.28187L52.2085 9.56254C52.1126 9.56996 51.9945 9.70297 51.8541 9.96136L51.8394 9.77679C52.0093 9.56254 52.0904 9.40004 52.0832 9.28929ZM51.2781 11.2096L51.3076 11.5715L51.2043 11.5789L51.1746 11.217L51.2781 11.2096ZM50.8423 11.8965L51.0343 11.8817C51.0123 12.1918 50.931 12.3543 50.7906 12.3692L50.6873 12.3764C50.798 12.1698 50.8498 12.0073 50.8423 11.8965ZM50.5322 12.8418L50.6208 12.8344L50.6281 12.9303L50.4584 13.2258L50.2662 13.2407L50.2589 13.1446C50.4584 13.1297 50.5468 13.0264 50.5322 12.8418ZM50.222 13.6985L50.1554 14.1711L50.0667 14.1786L50.0298 13.7133L50.222 13.6985ZM47.0683 22.6571C46.9427 23.2776 46.8099 23.5952 46.6695 23.6098L46.6621 23.5286C46.64 23.2184 46.7728 22.9231 47.0683 22.6571ZM46.4849 23.9053L46.4921 23.9866C46.507 24.1194 46.448 24.1934 46.315 24.2006L46.3076 24.1047C46.3001 24.0086 46.3593 23.9422 46.4849 23.9053ZM46.3224 26.5049L46.6177 26.4828L46.6251 26.5788C46.5587 26.5862 46.4552 26.6231 46.3371 26.6897L46.1451 26.7043C46.1376 26.601 46.1968 26.5346 46.3224 26.5049ZM54.6164 23.9422C52.9916 24.7473 52.024 25.2938 51.7212 25.5744C49.9486 26.1948 49.0699 26.5789 49.0845 26.734C47.5115 27.3618 46.4775 27.8121 45.99 28.1002C45.8718 28.1077 45.7019 28.0633 45.4804 27.96C45.4509 27.6424 45.5986 27.3838 45.9087 27.1918C46.1894 27.1698 46.4552 27.2067 46.699 27.31C46.9945 27.1623 47.5041 26.9998 48.2279 26.8153L48.213 26.6305L47.6074 26.6748C47.6814 26.5715 48.25 26.3055 49.3062 25.8772L49.6015 25.8551L49.6089 25.9364C49.1068 25.9807 48.8261 26.1284 48.7669 26.3942C48.7744 26.5123 48.8482 26.5715 48.9738 26.5567C49.3431 26.3129 49.5203 26.1727 49.5203 26.1284C50.2292 26.0028 52.1939 24.9688 55.4214 23.0338L55.4361 23.2184C55.4435 23.2996 55.1703 23.536 54.6164 23.9422ZM49.6681 25.567C50.148 25.5227 50.5542 25.3381 50.8941 25.0131C51.0195 24.9983 51.0935 25.0575 51.1007 25.1756C50.8793 25.1977 50.4435 25.3825 49.7861 25.7369L49.6828 25.7444L49.6681 25.567ZM57.6591 19.4297L55.1998 21.409C53.3607 22.6127 52.3638 23.2184 52.2085 23.2332C49.2839 24.8432 47.4671 25.6778 46.7507 25.7369L46.6474 25.7444C46.7359 25.412 48.0433 22.7457 50.5691 17.7383C51.6695 17.6424 53.4125 17.118 55.8054 16.1727L56.4037 16.1209C57.6074 16.0176 58.5085 16.2539 59.0994 16.8225L59.1289 17.1844C58.6783 18.4547 58.191 19.2006 57.6591 19.4297ZM52.8291 16.7118L53.213 16.6748L53.2205 16.7709L52.8365 16.8078L52.8291 16.7118ZM58.4199 15.759L58.7154 15.7369C58.9886 15.8698 59.1289 15.9881 59.1363 16.084L59.1437 16.1653C58.8851 16.1873 58.6414 16.0545 58.4199 15.759ZM59.1953 11.2614C58.9369 11.5715 58.2353 12.1032 57.0906 12.8418C56.7064 12.8787 55.2884 13.4252 52.8365 14.4887C52.7183 14.4444 52.5853 14.4297 52.4449 14.4371L52.4302 14.2524C52.4007 13.8979 52.5558 13.4547 52.8955 12.9157C53.0875 11.8965 53.3017 11.3278 53.5232 11.1948L55.5837 6.58617C55.5617 6.31293 55.9974 6.09144 56.8837 5.92152L57.1791 5.89945L57.2013 6.18011C58.0728 6.03969 58.6193 5.95844 58.8408 5.93636C60.4656 5.79594 61.315 6.12093 61.3814 6.91859L61.5734 6.90375L61.5365 6.46058L61.7287 6.44594C62.2013 6.70433 62.4523 7.01468 62.482 7.38383C62.5041 7.64984 62.371 7.97465 62.0904 8.3514C61.965 8.36605 61.8912 8.27758 61.8763 8.08558L61.6843 8.10023L61.6251 8.65414C60.8054 9.90238 60.2072 10.545 59.8304 10.5745C59.4982 11.025 59.2914 11.2539 59.1953 11.2614ZM60.0595 14.3336L60.0373 14.053L60.2292 14.0383L60.6429 14.2893C60.6503 14.4075 60.5912 14.4741 60.4656 14.4887C60.2884 14.378 60.1554 14.3262 60.0595 14.3336ZM25.6798 32.2731L25.4878 32.3174L25.3253 32.4577C25.3548 32.5758 25.4287 32.6202 25.5542 32.5907C25.6798 32.5612 25.7316 32.4873 25.7021 32.3692L25.6798 32.2731ZM24.9488 30.8182L24.9708 30.9141C25.0964 30.8846 25.148 30.8108 25.1185 30.6926L25.0964 30.5965C24.9783 30.6262 24.9265 30.7 24.9488 30.8182ZM30.148 18.4473L30.3697 18.3957L30.3253 18.2037L30.1039 18.2553L30.148 18.4473ZM97.1644 24.0752C94.9191 24.5774 94.6384 24.4887 94.1658 24.5256L94.1806 24.7104L94.3875 24.6955L94.4982 24.6881L94.4687 24.6661L94.7123 24.57C96.9353 24.3262 97.1939 24.4149 97.1716 24.1637L97.1644 24.0752ZM85.0742 25.6778L85.089 25.8625H85.1185L85.1039 25.6778H85.0742ZM83.6857 20.8108L83.4863 20.7444C83.3238 21.1801 83.2425 21.4385 83.2499 21.5123L83.2574 21.5936C83.4125 21.5862 83.5529 21.3203 83.6857 20.8108ZM97.6222 24.0383L97.6371 24.2229L97.9619 24.2819L97.9472 24.0973L97.6222 24.0383ZM82.3416 25.9067L81.8394 25.8477L81.7507 26.0397L81.7582 26.1358L84.7492 25.8846L84.7345 25.7L82.3416 25.9067ZM80.9826 19.3559L80.9753 19.2598L80.8718 19.2672L80.6873 19.3854L80.7906 19.5625C80.931 19.5479 80.9974 19.4813 80.9826 19.3559ZM99.0402 22.6793L99.1806 22.6645C99.2619 22.6571 99.2988 22.5907 99.2914 22.4725L99.2101 22.2952C98.7005 22.3395 98.4642 22.3618 98.0505 22.5907L98.0431 22.4948L97.4302 22.5537C97.4154 22.3692 97.3638 22.2731 97.2826 22.2805L96.965 22.31C96.5957 22.3395 96.4183 22.3248 96.2337 22.4651C96.2263 22.3987 96.2043 22.3692 96.1673 22.3692L95.8128 22.3987L95.606 22.5168C95.5986 22.4504 95.5765 22.4207 95.5394 22.4207L95.414 22.5317L95.4066 22.4356L94.9117 22.3987L94.7935 22.4061L94.8083 22.5907L95.0595 22.6571L95.2959 22.6424C95.3771 22.6942 95.4656 22.7088 95.5691 22.7014L95.7759 22.5981L95.7832 22.6793C94.6238 22.9674 94.631 22.9157 93.8334 23.0487C93.7449 22.9895 93.6783 22.96 93.6339 22.9674L93.6193 22.9821C93.5306 22.9746 93.4789 22.9157 93.4716 22.8196L93.8851 22.768C93.9146 22.768 93.9369 22.7975 94.1658 22.8418C94.4982 22.6793 94.5128 22.6127 94.6902 22.5981L94.6753 22.4133C93.538 22.635 93.9958 22.4873 92.5705 22.6127L92.5041 22.6202L92.4892 22.4356C94.3209 22.2141 93.708 22.3395 94.3357 22.1623C94.3431 22.2287 94.3652 22.2582 94.4021 22.2582C94.4694 22.1895 94.5579 22.1453 94.6533 22.1328L94.7789 22.1254C95.4212 22.0737 95.6355 22.1993 96.9058 21.8448L96.9132 21.926L97.1201 21.8225L97.3121 21.8078C97.2972 21.6231 97.5779 21.5936 97.674 21.5862L97.6591 21.3868C95.4287 21.8373 94.8453 21.7118 94.225 21.8891L94.2175 21.8078C93.6341 21.9112 93.6119 21.8668 93.4642 21.8743C93.4199 21.8817 93.3535 21.9186 93.2794 21.9924C93.2722 21.926 93.25 21.8963 93.2056 21.8963C93.1835 21.8963 93.1761 21.9037 93.1687 21.9037L91.2781 22.2139C91.2707 22.1623 91.2486 22.1328 91.2042 22.1401C90.222 22.3469 90.4878 22.3838 89.1732 22.502C89.114 22.5094 89.033 22.5389 88.9294 22.6055C88.922 22.5537 88.8925 22.5243 88.8261 22.5315L88.021 22.5981L87.482 22.7309C87.4746 22.6793 87.4451 22.6498 87.3785 22.6571C87.0757 22.7383 86.8099 22.7901 86.5957 22.8049H86.5808C86.448 22.8196 86.6474 22.768 86.5439 22.7237L86.3814 22.8196C86.1451 22.8418 86.2707 22.8049 85.4584 22.8121C84.033 22.9895 84.188 23.0116 84.033 23.019L83.5011 22.9821C83.5085 23.0338 83.4791 23.0707 83.4199 23.0707C82.8142 22.9895 82.5041 22.8934 82.4966 22.7827C82.5779 22.2067 82.7183 21.9112 82.9177 21.8963L83.021 21.8891L82.9324 22.0811L83.0359 22.0737C83.2279 21.9703 83.3166 21.8743 83.3091 21.7856L83.2943 21.5862L83.1023 21.601L83.0874 21.4164C83.0728 21.276 83.0949 21.1504 83.1466 21.0471L83.5824 20.3455L83.5972 20.5301L83.8039 20.5153L83.7892 20.3307L83.671 20.1608C83.8261 20.028 83.9443 19.9539 84.0402 19.9467L84.033 19.8506L83.7523 19.8729L83.73 19.5922C84.2914 18.4252 84.5572 17.7457 84.5425 17.5537L84.7419 17.635C84.8675 17.6276 84.9265 17.5537 84.9191 17.4207L84.7271 17.4356L84.7197 17.3543C84.7062 17.2195 84.7318 17.0836 84.7935 16.9629C85.0964 16.6453 85.2367 16.3278 85.2072 15.9953C85.2664 15.9879 85.2958 16.0176 85.3033 16.084C85.5617 15.9364 85.7611 15.545 85.9087 14.895C86.3667 14.0678 87.0165 12.4135 87.866 9.93929C89.4908 5.56703 89.4244 5.10179 89.6533 4.06781L89.4613 4.08246C89.4759 4.21547 89.4464 4.34105 89.3875 4.45922C89.2544 4.40746 89.1511 4.37797 89.0773 4.38539L89.0699 4.30414C89.0402 3.92738 89.1955 3.47699 89.5499 2.94515L89.6384 2.93773L89.8009 3.57289L89.9929 3.55824C89.9857 3.5139 90.0373 3.26273 90.1408 2.7975C90.1333 2.7014 90.0595 2.64242 89.9117 2.635L89.7271 2.75316C89.7125 2.62015 89.7197 2.27308 89.7419 1.71918L89.6459 1.7266C89.4834 1.5641 89.4021 1.43109 89.3947 1.32035L88.3386 1.42367C88.3312 1.34984 88.2943 1.2391 88.2205 1.09886C88.213 1.00277 88.4494 0.906677 88.9369 0.810779L89.1511 0.892029L89.3505 0.773865C89.3578 0.840271 89.3947 0.869763 89.4685 0.862537L89.6679 0.744373C89.6753 0.810779 89.7123 0.840271 89.7863 0.832849L89.8822 0.825623L89.8673 0.611365C89.7197 0.626208 89.3283 0.626208 88.708 0.603943L88.5085 0.736951L88.5011 0.618787C83.5455 1.02484 80.7316 1.25394 80.0595 1.32035C79.9708 1.32777 79.6238 1.32035 79.0107 1.30551C79.0181 1.38676 78.9443 1.43109 78.7966 1.44594L78.5824 1.34984L77.8586 1.53461C77.6886 1.54926 77.4007 1.54183 77.0019 1.49769C76.8912 1.58617 76.7582 1.63793 76.5957 1.65277C76.507 1.66 77.6517 1.59359 78.7152 1.51976C78.6044 1.60844 78.4347 1.66 78.1984 1.68226C78.0359 1.69711 77.8955 1.67484 77.7773 1.60844C77.6148 1.68226 77.0906 1.80043 76.2117 1.97758L75.9974 1.89652L72.541 2.42816C72.408 2.36176 72.2529 2.33949 72.0757 2.35433C71.891 2.36918 71.5808 2.43558 71.1525 2.55375L69.4834 3.24789L69.6089 3.45472C69.6902 3.4473 69.8083 3.40316 69.9486 3.32191L70.5396 3.37347L70.4656 3.92738C69.9191 4.17113 69.6015 4.53304 69.5128 4.99105C68.6931 5.35277 68.2869 5.61136 68.2869 5.76644L68.2943 5.86254L68.4199 5.85511L68.6414 5.73695L68.9 6.04711L68.9369 6.47543C68.9515 6.60844 67.5705 9.51097 64.8083 15.183C62.4154 20.6483 61.1599 23.6395 61.0417 24.1786C60.222 24.4075 59.7492 24.7399 59.6089 25.183C59.6238 25.3233 59.8673 25.4194 60.34 25.4563L60.3623 25.6704L60.148 26.0248L60.1849 26.4534C60.2072 26.6748 60.8054 26.8448 61.9796 26.9629C61.9722 26.8891 62.0093 26.8448 62.0904 26.8373C62.1126 27.1032 62.0388 27.6202 61.8689 28.3883L61.9945 28.3809C62.4818 27.7162 62.7109 27.2582 62.6886 27.0073L62.7921 26.9998C62.9103 26.9924 63.0359 27.1254 63.1835 27.4133C63.0359 27.4725 62.5189 28.6467 61.6326 30.9438L61.7582 31.1504L61.8837 31.1432C62.9693 28.3957 63.6488 26.8743 63.9294 26.5862C65.3548 26.4606 67.8216 26.2096 71.3224 25.8329L71.5439 25.7C71.5513 25.7739 71.5956 25.8108 71.6769 25.8034L71.9058 25.7813L72.1275 25.6483C72.1347 25.7221 72.1791 25.759 72.2603 25.7516L74.9117 25.5227C75.6134 25.4637 75.9457 25.2495 75.9162 24.8875C75.9087 24.7916 76.3224 24.6807 77.157 24.5625C77.2382 24.5551 77.3564 24.5774 77.5189 24.6291C77.5115 24.5625 77.9324 24.4961 78.7744 24.4223C78.7966 23.9791 78.9369 23.7428 79.188 23.7207L79.1658 23.5065C78.9294 23.5286 78.6636 23.5877 78.3535 23.6911C77.7996 23.6616 77.4451 23.6172 77.2972 23.5655C77.1496 23.6467 77.0388 23.6911 76.9576 23.6985L75.1111 23.7577L74.8896 23.8758C74.8822 23.8092 74.8378 23.7797 74.7566 23.7871L74.6533 23.7946L74.4169 23.9127C74.4095 23.8461 74.2175 23.7946 73.8334 23.7428L73.5972 23.883L73.1392 23.92L73.1318 23.8018C75.5099 23.5434 76.6843 23.2184 76.6546 22.8344C76.8099 22.8196 76.8912 22.8934 76.9058 23.0487L77.6001 22.8713L77.5779 22.6571L71.8837 22.8121C71.891 22.8862 71.854 22.9303 71.773 22.9377L71.0787 22.8787C70.9013 22.8934 70.7537 22.9452 70.6355 23.0338L70.3771 22.9377C69.6607 22.9969 69.1289 23.0856 68.7744 23.1963C68.2869 23.1594 67.7478 23.1666 67.1496 23.2184L65.8718 23.3291L65.281 23.2627C65.2515 22.8862 65.9826 21.0323 67.4892 17.7088C67.9251 16.5862 68.3238 15.8846 68.708 15.6188C68.7892 15.6114 68.9074 15.6409 69.0699 15.7073L69.9783 15.3971L70.4435 15.4709C71.2263 15.4045 72.1347 15.183 73.1761 14.7989C73.4347 14.7768 73.6267 14.7916 73.7669 14.8506L74.4613 14.6881L76.5293 14.511C77.408 14.4371 78.3607 14.245 79.3947 13.9274L79.3726 13.7133C78.9886 13.7502 78.7892 13.6838 78.7744 13.5286C78.7523 13.2407 78.4716 13.1225 77.9324 13.1666L77.9103 12.9526L78.479 12.7901L79.9708 12.6645L79.9486 12.4504C79.8896 12.4577 79.5869 12.4504 79.0255 12.4282L79.0033 12.1993L79.5794 12.1475C79.7345 12.1328 79.8009 12.0588 79.7863 11.9112C79.0107 11.9334 78.6193 11.8965 78.6119 11.793C73.2056 12.0588 70.4953 12.1106 70.4804 11.9407C70.3992 11.9481 70.2884 11.9998 70.1408 12.0885L70.0003 11.8668C71.4332 8.82406 72.2751 7.28793 72.5189 7.26566C72.5261 7.38383 72.4671 7.57582 72.3341 7.83441L72.3416 7.93031L72.5705 7.90824C73.1392 6.54925 73.6193 5.84769 74.0181 5.8182C75.7167 5.67035 73.7818 5.55961 77.4154 4.99105C77.5632 5.05746 77.6666 5.08695 77.7404 5.07953C79.1658 4.79164 81.1525 4.48871 83.7005 4.17855L83.6857 3.96429L82.3267 4.08988L82.3121 3.87582C82.4746 3.86097 82.6074 3.80922 82.7183 3.72074L82.7255 3.8389C82.7996 3.83148 82.9029 3.77972 83.0359 3.69105C83.2722 3.66898 83.4494 3.69105 83.575 3.75765C84.0476 3.63207 84.4316 3.55824 84.7123 3.52855L85.5617 3.4473C85.7685 3.31449 85.8644 3.19633 85.8572 3.08558L85.8498 2.98949C85.6355 3.01156 85.3917 2.99691 85.1039 2.94515C85.0964 2.82699 85.1554 2.74574 85.2959 2.70883L86.8763 2.56117L87.6001 2.3764C87.6074 2.45765 87.6445 2.48734 87.7035 2.48734C87.7773 2.47992 87.8808 2.42816 88.0136 2.33949C88.0505 2.34691 88.0949 2.34691 88.1318 2.35433C88.0359 2.55375 87.9249 2.84183 87.8142 3.2184L87.6074 3.23324C87.5927 3.09281 87.5558 2.96742 87.4892 2.85648L87.3859 2.8639C85.4656 8.21097 84.6089 10.7 82.8365 14.8063C82.5115 15.8551 82.2382 16.4385 82.0019 16.5641C82.0093 16.6823 82.0832 16.7412 82.2087 16.7266C82.2529 17.2436 82.1347 17.7532 81.8468 18.2553C81.0269 20.6188 80.4804 21.9112 80.1998 22.1475L80.3843 23.2627C80.3917 23.3809 80.3328 23.4473 80.2072 23.4621L80.0152 23.477C79.9855 23.1666 79.8748 23.019 79.6753 23.0412L79.572 23.0487C79.3208 23.4401 79.1289 23.8905 79.0033 24.4149L79.1953 24.4C79.4539 24.2303 79.572 24.0309 79.5498 23.8018L79.9339 23.7649L80.1554 23.8461C79.9783 24.1268 79.897 24.3485 79.9117 24.5182L80.0152 24.6955L79.764 25.2864L79.7714 25.3825C79.9929 25.3602 80.2367 25.434 80.4953 25.5891C80.6724 25.5745 80.8644 25.4932 81.0787 25.3528C81.3001 25.3307 82.1273 25.3233 83.5529 25.3233L84.2691 25.0795C85.1408 25.0721 85.281 25.0944 86.0343 25.028L86.3445 24.9983L86.507 24.8875L86.5144 24.9836C87.3046 24.917 87.3564 24.9688 87.9767 25.0426L87.9841 25.1387L87.5484 25.1756L87.563 25.3602C87.696 25.3455 87.8142 25.3084 87.9103 25.2274C88.021 25.22 88.0874 25.2789 88.0949 25.412C87.9177 25.4268 87.7183 25.4709 87.4966 25.545L87.3046 25.4784C87.0019 25.5596 87.0683 25.5819 86.8615 25.5965L86.5587 25.5375C86.5662 25.5891 86.5365 25.626 86.4849 25.626C86.4921 25.7444 86.5587 25.8034 86.6695 25.7959L86.9796 25.7664L88.597 25.626L89.2101 25.4932C89.2175 25.545 89.2396 25.5744 89.2914 25.567L89.5867 25.4563L90.1408 25.412C90.5691 25.375 90.5617 25.3455 91.4921 25.1977C91.4849 25.1387 91.507 25.1164 91.5513 25.1092L91.5587 25.1903C93.0728 24.9319 93.1687 24.917 93.4125 24.8358L93.4345 24.8801C93.8113 24.7916 93.597 24.8137 93.7005 24.7399C93.708 24.8063 93.73 24.8358 93.7669 24.8358L94.0328 24.8137L94.0181 24.6143L93.4789 24.6069L93.4716 24.5922C93.4494 24.5995 93.4345 24.5994 93.4125 24.6069H93.3386V24.6217C92.9767 24.6955 92.9693 24.6438 92.733 24.6661L91.3814 24.7399L91.374 24.6438L92.1273 24.5405L92.4005 24.5182L92.5558 24.4075L92.563 24.5036C93.6267 24.4149 94.0033 24.6807 98.922 23.6321C99.1878 23.6098 99.1658 23.3883 99.3357 22.9303C99.2456 22.9365 99.1556 22.916 99.0771 22.8713C98.671 23.0264 98.4568 22.9526 97.674 23.0782C97.6074 23.0856 97.5558 23.0264 97.5335 22.9082L97.5261 22.827L98.2794 22.8491C98.4199 22.8344 98.6931 22.8121 99.0994 22.5832C99.0994 22.6498 98.9515 22.6868 99.0402 22.6793ZM62.674 23.2627L62.3267 23.2922C62.3121 23.152 62.4966 22.6202 62.8806 21.7118L63.1097 21.6897C63.1171 21.9037 62.9767 22.4282 62.674 23.2627ZM63.0949 21.5789L63.0875 21.4828C63.08 21.3647 63.1541 21.2834 63.3166 21.2465L63.3238 21.3424C63.3312 21.4828 63.2574 21.5641 63.0949 21.5789ZM67.7109 25.1461L67.7183 25.242L67.1421 25.2938L67.1347 25.1977L67.7109 25.1461ZM67.0166 25.087C67.024 25.2051 66.8468 25.3381 66.4626 25.4709L65.7537 25.4194L65.5248 25.4414L65.5027 25.2274L67.0166 25.087ZM71.6843 3.60258L71.3371 3.63207L71.3298 3.5139C71.3224 3.39574 71.3888 3.31449 71.5365 3.27758L71.6621 3.27015L71.8984 3.36605C71.9058 3.50648 71.8394 3.58773 71.6843 3.60258ZM76.965 2.56859L77.0757 2.56117L77.0904 2.77523L76.7728 2.80492C76.7656 2.68676 76.8246 2.60551 76.965 2.56859ZM75.6355 3.03383L75.1111 2.97465L75.1037 2.87875C75.7906 2.81957 76.0195 2.74574 76.4406 2.62758C76.448 2.70883 76.5218 2.73832 76.6546 2.72367L76.6695 2.93773L76.4626 2.96C76.3001 2.97465 76.1599 2.95258 76.0417 2.88617C75.9162 2.96742 75.7832 3.01898 75.6355 3.03383ZM76.2929 4.94672L76.2855 4.85062L77.1347 4.76937L77.1421 4.86547L76.2929 4.94672ZM77.2013 4.20804L77.1939 4.08988L77.6074 4.05297L77.6148 4.17113L77.2013 4.20804ZM77.2972 2.76058L77.1865 2.76801L77.2826 2.5389L78.2279 2.45043L78.2353 2.56859C77.9916 2.59066 77.674 2.65707 77.2972 2.76058ZM77.7773 4.79886L77.7625 4.5848L78.1761 4.54789C78.3166 4.53304 78.3904 4.59945 78.3978 4.7473L77.7773 4.79886ZM80.281 1.38676L79.7492 1.53461L79.6533 1.54183C79.4021 1.5641 79.0771 1.55668 78.6931 1.51976C79.38 1.47543 80.0373 1.42367 80.281 1.38676ZM79.7123 3.75023L79.7197 3.84613L78.9886 3.91273L78.9812 3.81664L79.7123 3.75023ZM80.9087 4.31879C80.9013 4.23031 80.7611 4.17113 80.473 4.14164L79.7419 4.34847L79.1806 4.37054C79.055 4.28187 78.9886 4.22289 78.9812 4.17855L79.6312 4.21547L81.0935 3.97914L81.8394 4.00863L81.8468 4.12679C81.4775 4.16371 81.1673 4.23031 80.9087 4.31879ZM88.4347 2.3764C88.5232 2.38383 88.5824 2.38383 88.6044 2.38383C88.863 2.13285 89.1511 1.93343 89.4834 1.79301C89.2175 2.96 88.8039 3.82406 88.2353 4.38539L87.8216 4.13422C88.1687 3.25531 88.3755 2.67191 88.4347 2.3764ZM87.1644 4.55531L87.2677 4.54789C87.1273 4.81371 87.0019 4.95394 86.8984 4.96136L86.8763 4.6807C86.9427 4.6807 87.0388 4.63636 87.1644 4.55531ZM86.3445 6.51234C86.5439 5.71469 86.7359 5.26429 86.9132 5.14613L86.9207 5.24203C86.8171 5.9807 86.6546 6.37211 86.4406 6.4016L86.4775 6.86683C86.3001 7.118 86.2189 7.31 86.2263 7.45765L86.123 7.46508L86.0638 6.8225C86.182 6.80785 86.2781 6.70433 86.3445 6.51234ZM86.0269 7.57582C86.0343 7.68676 85.9605 7.94515 85.8128 8.34398L85.7093 8.3514L85.6873 8.07074C85.8275 7.74574 85.9457 7.58324 86.0269 7.57582ZM80.0669 24.8727L80.0595 24.7916L80.2515 24.7768L80.2736 25.0575C80.1703 25.0649 80.0964 25.0057 80.0669 24.8727ZM88.5824 25.0944C88.575 25.028 88.5455 24.9983 88.479 25.0057L87.999 25.05L87.9916 24.9539H88.0359L89.1732 24.858L89.1806 24.9539C88.8482 24.9688 88.6488 25.0205 88.5824 25.0944ZM88.0136 24.858C88.058 24.8801 88.0359 24.9024 88.0136 24.917C87.9916 24.9098 87.9621 24.8875 88.0136 24.858ZM88.0728 23.5286L87.4376 23.5803L87.4302 23.4842L88.0062 23.4327L88.5085 23.3071C88.516 23.3661 88.5455 23.3883 88.6119 23.3809C89.2101 23.2776 89.1511 23.2481 89.439 23.2258C89.5351 23.2184 89.5943 23.2776 89.6015 23.3957L88.0728 23.5286ZM90.2959 23.3366C89.9414 23.2996 89.9191 23.2702 89.6681 23.2922L89.6607 23.211L90.2292 23.1594L90.2367 23.2407C90.1777 23.2481 90.3917 23.2627 90.2959 23.3366ZM90.3402 23.2332L90.3328 23.152L90.6429 23.1225L90.6503 23.2037L90.3402 23.2332ZM91.0269 23.1741L91.0197 23.0928C91.0712 23.0856 91.1451 23.0487 91.2412 22.9746C91.3962 22.96 91.4775 23.0633 91.4923 23.1815L91.0269 23.1741ZM91.9058 23.0633L91.8984 22.9674L92.2751 22.9377L92.2826 23.0338L91.9058 23.0633ZM92.4302 23.019C92.4228 22.9082 92.4671 22.8418 92.5632 22.827L92.6886 22.9895C92.6814 22.9377 92.7035 22.9082 92.7478 22.9008L92.8439 23.0782L92.4302 23.019ZM86.8542 25.4268L86.8394 25.242L86.7802 25.2495L86.7951 25.434L86.8542 25.4268ZM99.8306 22.0662C99.8896 22.0293 99.9191 21.9924 99.7789 21.9703C99.7123 22.0442 99.8527 22.0662 99.705 22.0737L99.7123 22.1401C99.7271 22.1254 99.764 22.1032 99.7935 22.0811L99.7123 22.1475V22.1549L99.5572 22.3543L99.8673 22.2436H99.9044L99.8896 22.0588L99.8306 22.0662ZM100.37 22.4873L100.311 22.4948L100.325 22.6793L100.761 22.6424C100.754 22.5243 100.466 22.4873 100.37 22.4873ZM99.6976 22.1623L99.705 22.1549V22.1475C99.705 22.1475 99.6976 22.1549 99.6976 22.1623Z"/><path fill="#F9DC3E" d="M71.3445 8.49164L71.3519 8.6098L71.5957 8.58773C71.5883 8.5139 71.6177 8.39574 71.6695 8.24789L71.6474 8.03383C71.5439 8.04125 71.4406 8.19633 71.3445 8.49164ZM69.0107 2.87875L68.9886 2.66449L68.6414 2.69398L68.6637 2.90824L69.0107 2.87875ZM62.2383 15.5596C62.2234 15.3602 61.6031 14.5848 60.3771 13.2184C60.3549 12.9674 60.776 12.5907 61.64 12.0959L64.1068 9.94672C64.6607 9.24496 64.9855 8.10765 65.0816 6.52718L65.0521 6.16527C64.956 5.07211 64.1658 4.1934 62.6666 3.52133C61.7802 2.92308 60.1849 2.59066 57.8808 2.53148C55.9754 2.69398 53.4863 3.37347 50.4215 4.57738C49.5795 5.18304 48.6193 5.78851 47.541 6.39418L47.5558 6.57894C47.6222 6.57152 47.7256 6.53461 47.8439 6.45336C47.9693 6.43851 48.0433 6.49769 48.0506 6.61586L48.2353 6.51976L48.3238 6.51234L48.3312 6.59359C48.3386 6.68968 47.674 7.2139 46.3299 8.15199L46.4332 8.34398L46.3445 8.3514L46.123 8.27015C46.1304 8.33656 46.0344 8.38089 45.8498 8.39574L45.8572 8.47699L46.0713 8.74281C46.0049 8.75023 45.9015 8.72074 45.7611 8.66898C45.451 8.69847 45.148 8.86097 44.8453 9.17113L44.9709 8.62465C45.4215 6.68226 45.7316 4.96136 45.8941 3.46957L45.8718 3.37347C45.5617 3.17406 45.259 2.8934 44.9783 2.5389C44.9857 2.31 44.9857 2.17699 44.9783 2.1475L44.956 2.06625L44.8676 2.08851C43.8926 3.55082 42.0166 6.04711 39.2324 9.57738C37.1127 12.0885 36.0195 13.4842 35.9531 13.7649C35.089 14.6586 34.6754 15.1977 34.7197 15.3825C34.4908 15.5301 34.3947 15.6778 34.4318 15.8403C34.3652 15.8551 34.3209 15.8328 34.3062 15.7664C33.9369 16.3647 33.3904 16.7487 32.6592 16.9186L31.891 17.0957C31.7877 17.118 31.7359 17.1918 31.7433 17.3174L31.7656 17.4133L32.0535 17.3469L32.0758 17.4282L31.4258 17.6793L30.2736 17.9452L29.6681 17.9821C29.5795 18.0707 30.148 17.9746 29.9265 18.0264L29.1732 18.2037C28.7154 18.3071 28.4642 18.2702 28.4199 18.0856L28.3312 18.1077C28.3461 18.1889 28.3535 18.2479 28.3386 18.2996L28.2943 18.1151L27.6886 18.2553C27.6445 17.9746 26.8246 16.9555 25.2367 15.1977C25.2072 14.858 25.7685 14.3631 26.9133 13.7207L30.148 10.8772C30.8719 9.94672 31.3002 8.45472 31.4406 6.4016L31.3963 5.92152C31.2707 4.47406 30.222 3.30707 28.25 2.40609C27.0832 1.61586 24.9857 1.19476 21.9576 1.12836C19.4465 1.34242 16.1674 2.23617 12.1347 3.79457C11.0269 4.59945 9.76404 5.39711 8.34607 6.18734L8.36814 6.43851C8.46423 6.43109 8.58982 6.37953 8.7449 6.29086C8.9074 6.27601 8.99607 6.34984 9.01072 6.49769L9.26189 6.35726L9.38748 6.34984L9.3947 6.468C9.40212 6.58617 8.52322 7.27308 6.74333 8.52855L6.88376 8.75023L6.75818 8.75765L6.48494 8.66156C6.49236 8.73539 6.36677 8.78715 6.10818 8.80922L6.12302 8.94222L6.41833 9.26722C6.32244 9.27465 6.18943 9.24496 6.0197 9.18597C5.44353 9.23754 4.8822 9.65121 4.3283 10.434L4.46873 10.6557C4.9488 10.2125 5.22927 9.99105 5.31052 9.98363L5.34021 10.3455C5.25896 10.3528 5.13337 10.4045 4.96345 10.4932L5.26638 10.951C5.83831 10.333 6.48594 9.78954 7.19392 9.33363C7.54099 9.4223 7.72576 9.53304 7.73298 9.65121L7.999 9.62914C9.90447 8.2184 11.7877 7.19925 13.6562 6.57152L13.6785 6.8225C13.3312 7.33949 13.0949 7.6055 12.9693 7.62015C12.9842 7.7975 13.0433 7.95258 13.1541 8.08558C13.1836 8.40316 12.3342 10.545 10.6135 14.5036C6.70642 23.7059 3.42732 30.5153 0.761108 34.917C0.76853 35.0057 0.820288 35.1239 0.916187 35.2715C1.57361 35.1164 1.98708 34.9541 2.16443 34.7989L2.30466 34.7842L2.32693 35.0352L2.57048 35.0131L2.82166 34.8729C2.82908 34.9467 2.91033 34.9836 3.08025 34.9688L3.10232 35.22C3.12439 35.4637 2.98416 35.8328 2.68865 36.3424C2.42283 36.6453 2.13474 37.2805 1.83201 38.2481L1.83943 38.3661L2.08318 38.344C3.14666 37.1549 3.95173 35.9879 4.50564 34.8506C7.60759 33.9422 9.97087 33.0485 11.6105 32.1698C13.2574 32.0293 14.5129 31.5936 15.3697 30.8772L15.3549 30.7444L14.7345 30.9289L14.5941 30.9438L14.5795 30.8108C15.7906 30.6262 16.6252 30.3602 17.0906 29.9911C19.4465 28.1741 21.2263 26.8891 22.4302 26.1284C24.9045 24.3116 26.5144 22.5389 27.2457 20.8182C27.3785 20.7885 27.5115 20.759 27.6592 20.7221C28.0062 20.7075 28.1984 20.7 28.25 20.6852C28.2353 20.6188 28.2648 20.5819 28.3312 20.567C28.8851 20.508 28.6193 20.6039 28.9738 20.5227L29.9045 20.3086L30.0595 20.2715L29.9857 20.3159C30.089 20.3307 30.1998 20.3233 30.3254 20.2938L30.3918 20.567L26.1599 27.2952L25.222 28.4696L24.764 30.0057L24.8527 29.9836L25.3105 29.7916L25.1629 30.3899L25.2072 30.567L25.3328 30.7221C25.2736 30.7369 25.2515 30.7739 25.2662 30.8403L25.2885 30.9364L25.4804 30.892C25.7611 30.6483 25.8793 30.4268 25.8349 30.2274C26.1377 30.2789 26.3371 30.3012 26.4406 30.2717L26.4627 30.3676C26.2781 30.4119 26.182 30.5596 26.1674 30.8108L26.1894 30.9067L26.2929 30.8846C27.8291 29.208 31.5957 23.4696 34.6164 19.5774C34.5203 19.1565 36.0935 18.5729 39.3431 17.8196L39.4465 17.7975C39.5646 18.3071 39.3136 19.5405 38.6931 21.4977C38.2943 22.6793 38.1023 23.3291 38.1318 23.4327C37.6148 25.0057 37.3711 25.8551 37.4008 25.9879L36.2486 29.7619C35.5025 31.6971 34.934 33.728 34.5351 35.8698C34.6015 35.8551 34.7051 35.8625 34.8527 35.8994L35.0152 35.759C35.0299 35.8256 35.0742 35.8477 35.1408 35.8328L35.0742 35.5596L35.5765 35.545C35.7242 35.508 35.8498 35.3233 35.9531 34.9836C35.931 34.4741 36.0344 34.2008 36.2633 34.1416C36.5734 32.9305 36.7656 32.3248 36.832 32.3026C37.1201 31.0989 37.3342 30.4119 37.4746 30.242C37.9103 28.6764 38.2279 27.8713 38.4347 27.8196L38.4791 28.0116L38.1615 28.8315C37.6074 31.2909 37.0463 33.2332 36.4775 34.6586L36.64 35.3676L36.7433 35.3455C38.1172 32.3912 40.0965 26.5418 42.674 17.7975C42.7478 17.0293 43.1172 16.4311 43.7744 16.0102L43.6267 15.8551L43.6045 15.7739C43.9 15.7073 44.1068 15.5893 44.225 15.4268C44.2101 15.3602 43.9517 15.2643 43.4494 15.1313L44.7345 9.62172C45.0152 9.37054 45.1777 9.23773 45.2293 9.23773L45.2515 9.5182C45.1851 9.52562 45.0816 9.56254 44.9635 9.64379L45.2072 9.99105C45.6504 9.51097 46.1304 9.0973 46.6547 8.75023C46.9207 8.82406 47.0535 8.91273 47.0683 9.00121L47.2603 8.98656C48.7226 7.91566 50.1554 7.1475 51.5662 6.68226L51.5808 6.86683C51.3224 7.25824 51.1451 7.45765 51.0492 7.46508C51.0638 7.59808 51.1008 7.71625 51.1674 7.81957C51.1894 8.06332 50.5543 9.68812 49.2545 12.7014C46.2855 19.6807 43.7965 24.8432 41.7728 28.1963C41.7802 28.2627 41.8246 28.3514 41.9058 28.4696C42.4008 28.3514 42.7183 28.2258 42.8439 28.1077L42.9324 28.1002L42.9472 28.2848L43.1541 28.2702L43.3386 28.1741C43.3461 28.2258 43.4125 28.2479 43.5381 28.2407L43.5529 28.4401C43.5676 28.6172 43.4642 28.8979 43.2353 29.2819C43.0211 29.511 42.7996 29.991 42.5633 30.7221L42.5705 30.8182L42.7627 30.8034C43.5676 29.9024 44.1806 29.0161 44.6015 28.1446C46.9576 27.4504 48.7523 26.7782 49.9929 26.1135C51.256 26.0028 52.2086 25.6778 52.8586 25.1313L52.8511 25.0352L52.3711 25.1756L52.2677 25.183L52.2603 25.087C53.1761 24.9539 53.8187 24.7473 54.1658 24.4741C55.9531 23.1002 57.3047 22.118 58.2205 21.5418C61.0713 19.4666 62.4008 17.4725 62.2383 15.5596ZM61.7508 15.6852L61.8172 16.4311C61.7287 16.6159 61.6326 16.7118 61.5439 16.7192L61.4332 15.4489C61.64 15.5227 61.7433 15.5965 61.7508 15.6852ZM5.82751 9.67347L5.70212 9.6807L5.67986 9.45179L6.18943 9.40746L6.19685 9.52562C6.1156 9.53304 5.99001 9.57738 5.82751 9.67347ZM3.33865 34.57C3.04333 34.4369 2.77732 34.3854 2.54841 34.4075L2.51892 34.0455C2.50408 33.9053 2.58533 33.8092 2.76267 33.7723C2.92498 33.7577 3.02107 33.8758 3.03591 34.1121C3.46423 33.5877 3.70056 33.3219 3.7449 33.3145L4.01814 33.4252C3.92947 34.1637 3.70056 34.5405 3.33865 34.57ZM29.934 6.74867C29.8084 6.76351 29.5572 6.37211 29.1955 5.59652L29.1732 5.36761C29.4095 5.34554 29.6533 5.72953 29.9117 6.51976L29.934 6.74867ZM29.5795 3.99398L29.476 4.23773L25.8644 2.7309C28.2722 2.81215 29.5131 3.23324 29.5795 3.99398ZM14.3283 17.0885L13.8187 17.1328L13.7967 16.9037L14.3062 16.8594L14.3283 17.0885ZM13.9146 9.22289L14.0402 9.21547L14.0699 9.57738C13.9517 9.5848 13.7967 9.76195 13.6045 10.1018L13.5824 9.85062C13.8113 9.57738 13.9295 9.37054 13.9146 9.22289ZM12.8437 11.7487L12.8881 12.2287L12.7627 12.2362L12.7183 11.7561L12.8437 11.7487ZM12.2826 12.6498L12.5263 12.6276C12.5041 13.0264 12.3933 13.2407 12.1939 13.2553L12.0683 13.2627C12.2234 12.9969 12.2972 12.7901 12.2826 12.6498ZM11.8615 13.9053L12.0019 13.8905L12.0092 14.0086L11.7802 14.3928L11.5365 14.4149L11.5293 14.2967C11.773 14.2746 11.8838 14.1491 11.8615 13.9053ZM11.448 15.0354L11.3742 15.6409L11.2486 15.6483L11.1969 15.05L11.448 15.0354ZM7.30466 26.8153C7.14216 27.6424 6.96501 28.0633 6.78025 28.0782L6.77302 27.96C6.72869 27.5537 6.90583 27.1698 7.30466 26.8153ZM6.54392 28.4621L6.55134 28.5803C6.56619 28.7428 6.49236 28.8389 6.32986 28.8461L6.32244 28.728C6.30759 28.5877 6.38142 28.4991 6.54392 28.4621ZM6.32244 31.8817L6.70642 31.8448L6.72126 31.9778C6.62517 31.985 6.49959 32.0368 6.34451 32.1254L6.10076 32.1475C6.08611 32.0219 6.16736 31.926 6.32244 31.8817ZM17.2529 28.5065C15.0965 29.57 13.8261 30.2938 13.4494 30.6703C11.1156 31.4828 9.95603 31.985 9.9783 32.1844C7.90291 33.0043 6.5365 33.6098 5.87927 33.9866C5.72419 34.0012 5.50271 33.9422 5.2072 33.8092C5.17029 33.3883 5.36228 33.0485 5.76853 32.7752C6.13044 32.7457 6.47751 32.7975 6.80994 32.9377C7.19392 32.7383 7.86599 32.5168 8.81873 32.2805L8.79665 32.0293L8.02849 32.0957C8.12439 31.9629 8.86306 31.6159 10.2515 31.0545L10.6355 31.0176L10.6429 31.1358C9.98572 31.1948 9.6238 31.3868 9.54255 31.734C9.5572 31.8891 9.64587 31.9555 9.80837 31.9407C10.3033 31.6305 10.5469 31.4459 10.5396 31.3942C11.4775 31.217 14.0699 29.858 18.3166 27.3248L18.3386 27.5537C18.3461 27.6645 17.9842 27.9746 17.2529 28.5065ZM10.739 30.6483C11.3594 30.5965 11.8912 30.3455 12.3342 29.9098C12.5115 29.895 12.6076 29.9614 12.6148 30.1164C12.3121 30.1461 11.7287 30.3971 10.8793 30.8846L10.7537 30.892L10.739 30.6483ZM21.2486 22.5758L17.9916 25.1608C15.5691 26.7487 14.2693 27.5463 14.0771 27.5612C10.222 29.6807 7.82166 30.7813 6.89119 30.8625L6.75076 30.8772C6.86892 30.4414 8.5824 26.9334 11.9058 20.3307C13.3681 20.2051 15.6724 19.5256 18.8113 18.285L19.5795 18.2184C21.1674 18.0782 22.3564 18.3883 23.1392 19.1268L23.1836 19.6069C22.6002 21.2983 21.9502 22.2879 21.2486 22.5758ZM14.8822 18.994L15.4066 18.9496L15.414 19.0678L14.8896 19.1121L14.8822 18.994ZM22.2457 17.7457L22.6297 17.7088C22.9842 17.8787 23.1687 18.0264 23.1836 18.1594L23.191 18.2776C22.8511 18.3071 22.5336 18.1297 22.2457 17.7457ZM23.2869 11.8153C22.9472 12.2213 22.0166 12.9157 20.4953 13.8905C19.9929 13.9348 18.1244 14.6586 14.8896 16.0766C14.7279 16.0027 14.5497 15.9722 14.3726 15.9879L14.3506 15.759C14.3136 15.2938 14.5203 14.7104 14.9783 14.0014C15.2293 12.6719 15.5027 11.9112 15.8054 11.7266L18.5011 5.66312C18.4717 5.28636 19.0476 4.99828 20.2293 4.79886L20.6135 4.76195L20.6429 5.10922C21.8025 4.93187 22.5261 4.82855 22.8068 4.80629C24.9488 4.62172 26.0638 5.05746 26.1525 6.09886L26.3963 6.0766L26.3445 5.46371L26.6105 5.44144C27.2383 5.78851 27.5779 6.20961 27.6222 6.70433C27.6517 7.04418 27.4672 7.46508 27.0758 7.96742C26.9133 7.98207 26.8172 7.8639 26.8025 7.62757L26.5365 7.64984L26.4775 8.38832C25.3918 10.0131 24.6015 10.8477 24.1142 10.892C23.6711 11.5049 23.3978 11.8078 23.2869 11.8153ZM24.9414 16.0619C24.7197 15.9141 24.5426 15.8477 24.4095 15.8551L24.3801 15.4932L24.6238 15.4709L25.1629 15.7887C25.1851 15.9584 25.1111 16.0471 24.9414 16.0619ZM26.6549 18.0928C26.8912 18.1889 27.0314 18.2922 27.0609 18.3883L26.9427 18.4178L26.9502 18.4252C26.9281 18.4252 26.8984 18.4327 26.8763 18.4401L26.699 18.5803L26.6549 18.0928ZM26.8172 19.1121L26.7951 19.0161L27.1052 18.9422L27.1275 19.0383L26.8172 19.1121ZM27.5633 19.9467C27.8808 19.895 28.0359 19.8729 28.6267 19.7399L28.6488 19.8358L27.5263 20.0944C27.541 20.0426 27.5558 19.9911 27.5633 19.9467ZM28.6562 20.4119C28.1836 20.4563 28.2869 20.3971 27.5336 20.567L27.5115 20.4709L28.4568 20.1682L28.9074 20.0649L28.9517 20.242C28.7449 20.2864 28.8926 20.2864 28.6562 20.4119ZM29.6533 20.1756C29.5426 20.2051 29.4539 20.1536 29.4021 20.028L29.6902 19.9614C29.8158 19.9319 29.897 19.9836 29.9265 20.1092L29.6533 20.1756ZM32.3564 17.2657L32.3342 17.1698L32.7996 17.0588L32.8439 17.2362L32.3564 17.2657ZM35.2441 34.9762C35.2736 34.8432 35.281 34.7473 35.2662 34.6807L35.3697 34.6586C35.4953 34.6291 35.5691 34.6735 35.5986 34.7916L35.6209 34.8875L35.2441 34.9762ZM37.2677 18.0264L37.0609 17.9895C36.7287 18.1225 36.448 18.2184 36.2189 18.2702L36.0269 18.3145C35.9162 18.344 35.8275 18.2996 35.7832 18.1815L37.1347 17.8713L37.5779 17.6645L37.7258 17.8344C37.5115 17.8787 37.3564 17.9452 37.2677 18.0264ZM38.3092 17.694L38.2869 17.5981C38.3535 17.5832 38.442 17.5317 38.5381 17.4356L39.4982 17.2139L39.5203 17.31C39.0107 17.4356 38.6045 17.5612 38.3092 17.694ZM38.4568 15.7516C38.3904 15.7664 38.3017 15.8254 38.191 15.9141C38.1761 15.8477 38.0433 15.8477 37.7922 15.9067C37.7478 15.7221 38.4568 15.4637 39.9265 15.1239L40.1334 15.0795L40.1777 15.2569C39.1437 15.5596 38.5676 15.7295 38.4568 15.7516ZM41.0418 12.96C40.9385 14.1342 40.5248 14.7989 39.7935 14.9688L39.7715 14.8729L39.1215 15.1239L38.8336 15.1905C38.6857 15.2274 38.5529 15.22 38.4347 15.183L38.3756 14.9244C38.3535 14.8286 39.2914 13.5286 41.1969 11.0323L41.4183 11.0692C41.4996 11.409 41.3742 12.0368 41.0418 12.96ZM45.6135 9.04554L45.5248 9.05297L45.5099 8.8684L45.8941 8.83148L45.9013 8.92738C45.8349 8.94222 45.739 8.97914 45.6135 9.04554ZM43.7301 27.96C43.5086 27.8565 43.3092 27.8121 43.1392 27.827L43.1172 27.5463C43.1097 27.4504 43.1687 27.3838 43.2943 27.3469C43.4199 27.3323 43.4937 27.4207 43.5086 27.6127C43.8261 27.2067 44.0033 26.9998 44.0402 26.9998L44.2396 27.0811C44.1658 27.6424 43.9961 27.9377 43.7301 27.96ZM63.922 6.83734C63.8261 6.84476 63.6414 6.54925 63.3535 5.95101L63.3386 5.76644C63.5232 5.7516 63.7154 6.03968 63.9074 6.63051L63.922 6.83734ZM63.6562 4.72504L63.5676 4.91703L60.8349 3.7723C62.6592 3.83148 63.6045 4.14906 63.6562 4.72504ZM52.0683 14.6735L51.6843 14.7104L51.6695 14.5256L52.0535 14.4887L52.0683 14.6735ZM51.7508 8.69847L51.8541 8.69105L51.8763 8.97172C51.7802 8.97914 51.6621 9.11215 51.5218 9.37054L51.507 9.18597C51.6769 8.97172 51.7582 8.80922 51.7508 8.69847ZM50.9457 10.6188L50.9754 10.9807L50.8718 10.9881L50.8424 10.6262L50.9457 10.6188ZM50.5099 11.3055L50.7019 11.2909C50.6799 11.601 50.5986 11.7635 50.4584 11.7782L50.3549 11.7856C50.4656 11.5789 50.5174 11.4164 50.5099 11.3055ZM50.1998 12.251L50.2885 12.2436L50.2959 12.3395L50.126 12.635L49.934 12.6498L49.9265 12.5537C50.126 12.5389 50.2146 12.4356 50.1998 12.251ZM49.8896 13.1077L49.8232 13.5803L49.7345 13.5877L49.6976 13.1225L49.8896 13.1077ZM46.7359 22.0662C46.6105 22.6868 46.4775 23.0043 46.3371 23.019L46.3299 22.9377C46.3076 22.6276 46.4406 22.3321 46.7359 22.0662ZM46.1525 23.3145L46.1599 23.3957C46.1748 23.5286 46.1156 23.6024 45.9826 23.6098L45.9754 23.5139C45.9679 23.4178 46.0269 23.3514 46.1525 23.3145ZM45.99 25.9141L46.2855 25.892L46.2927 25.9879C46.2263 25.9953 46.123 26.0323 46.0049 26.0989L45.8129 26.1135C45.8054 26.0102 45.8644 25.9438 45.99 25.9141ZM54.284 23.3514C52.6592 24.1565 51.6916 24.703 51.3888 24.9836C49.6164 25.6039 48.7375 25.9879 48.7523 26.143C47.1791 26.7709 46.1451 27.2213 45.6578 27.5094C45.5396 27.5168 45.3697 27.4725 45.148 27.3692C45.1185 27.0516 45.2662 26.793 45.5765 26.601C45.8572 26.5789 46.123 26.6159 46.3668 26.7192C46.6621 26.5715 47.1717 26.409 47.8955 26.2243L47.8808 26.0397L47.2826 26.0914C47.3564 25.9879 47.925 25.7221 48.9812 25.2938L49.2765 25.2715L49.284 25.3528C48.7818 25.3971 48.5011 25.545 48.442 25.8108C48.4494 25.9289 48.5232 25.9879 48.6488 25.9733C49.0181 25.7295 49.1953 25.5891 49.1953 25.545C49.9045 25.4194 51.8689 24.3854 55.0965 22.4504L55.1111 22.635C55.1111 22.7088 54.8379 22.9452 54.284 23.3514ZM49.3357 24.9762C49.8158 24.9319 50.222 24.7473 50.5617 24.4223C50.6873 24.4149 50.7611 24.4666 50.7685 24.5848C50.5468 24.6069 50.1111 24.7916 49.4539 25.1461L49.3506 25.1534L49.3357 24.9762ZM57.3269 18.8389L54.8676 20.8182C53.0285 22.0219 52.0314 22.6276 51.8763 22.6424C48.9517 24.2524 47.1347 25.0869 46.4183 25.1461L46.315 25.1534C46.4037 24.8211 47.7109 22.1549 50.2367 17.1475C51.3371 17.0516 53.0802 16.5272 55.473 15.5819L56.0713 15.5301C57.2752 15.4268 58.1761 15.6631 58.767 16.2317L58.7967 16.5936C58.3461 17.8639 57.8586 18.6098 57.3269 18.8389ZM52.4967 16.1209L52.8808 16.084L52.8881 16.1801L52.5041 16.217L52.4967 16.1209ZM58.0875 15.1682L58.383 15.1461C58.6562 15.2789 58.7967 15.3971 58.8039 15.4932L58.8113 15.5745C58.5529 15.5965 58.3092 15.4637 58.0875 15.1682ZM58.8631 10.6703C58.6045 10.9807 57.9029 11.5123 56.7582 12.251C56.3742 12.2879 54.956 12.8344 52.5041 13.8979C52.3859 13.8536 52.2529 13.8389 52.1127 13.8461L52.0978 13.6616C52.0683 13.3071 52.2234 12.8639 52.5633 12.3248C52.7552 11.3055 52.9693 10.7369 53.191 10.6039L55.2515 5.99535C55.2293 5.72211 55.665 5.50062 56.5513 5.3307L56.8469 5.30863L56.8689 5.5891C57.7404 5.44886 58.2869 5.36761 58.5086 5.34554C60.1334 5.20511 60.9826 5.53011 61.0492 6.32777L61.2412 6.31293L61.2043 5.86976L61.3963 5.85511C61.8689 6.11351 62.1201 6.42367 62.1496 6.793C62.1717 7.05883 62.0388 7.38383 61.7582 7.76058C61.6326 7.77523 61.5588 7.68675 61.5439 7.49457L61.3519 7.50941L61.2929 8.06332C60.473 9.31156 59.8748 9.95394 59.4982 9.98363C59.1658 10.434 58.959 10.6631 58.8631 10.6703ZM59.7271 13.7428L59.7051 13.4621L59.897 13.4475L60.3105 13.6985C60.3179 13.8166 60.259 13.8832 60.1334 13.8979C59.956 13.7871 59.8232 13.7354 59.7271 13.7428ZM25.3474 31.6823L25.1554 31.7266L24.9929 31.8668C25.0226 31.985 25.0965 32.0293 25.222 31.9998C25.3474 31.9703 25.3992 31.8965 25.3697 31.7784L25.3474 31.6823ZM24.6164 30.2274L24.6385 30.3233C24.764 30.2938 24.8158 30.22 24.7863 30.1018L24.764 30.0057C24.6459 30.0352 24.5941 30.1092 24.6164 30.2274ZM29.8453 20.4045L29.9857 20.3159C29.956 20.3159 29.934 20.3084 29.9117 20.3012C29.8601 20.3159 29.8379 20.3528 29.8453 20.4045ZM29.8158 17.8565L30.0373 17.8049L29.9929 17.6127L29.7715 17.6645L29.8158 17.8565ZM82.0094 25.3159L81.507 25.2569L81.4183 25.4489L81.4258 25.545L84.417 25.2938L84.4021 25.1092L82.0094 25.3159ZM84.742 25.087L84.7566 25.2715H84.7861L84.7715 25.087H84.742ZM97.2898 23.4473L97.3047 23.6321L97.6297 23.6911L97.6148 23.5065L97.2898 23.4473ZM96.832 23.4842C94.5869 23.9866 94.3062 23.8979 93.8336 23.9348L93.8482 24.1194L94.0551 24.1047L94.1658 24.0973L94.1363 24.0752L94.3801 23.9791C96.6031 23.7354 96.8615 23.8241 96.8394 23.5729L96.832 23.4842ZM83.3535 20.22L83.1541 20.1536C82.9916 20.5891 82.9103 20.8477 82.9177 20.9215L82.925 21.0028C83.0802 20.9953 83.2205 20.7295 83.3535 20.22ZM80.6504 18.7651L80.6429 18.669L80.5396 18.6764L80.3549 18.7946L80.4584 18.9717C80.5986 18.9571 80.665 18.8905 80.6504 18.7651ZM86.5219 24.8358L86.507 24.6512L86.448 24.6586L86.4627 24.8432L86.5219 24.8358ZM98.708 22.0885L98.8482 22.0737C98.9295 22.0662 98.9664 21.9998 98.959 21.8817L98.8777 21.7043C98.3681 21.7487 98.1318 21.7709 97.7183 21.9998L97.7109 21.9037L97.0978 21.9629C97.0832 21.7782 97.0314 21.6823 96.9502 21.6897L96.6326 21.7192C96.2633 21.7487 96.0861 21.734 95.9013 21.8743C95.8941 21.8078 95.8719 21.7782 95.8349 21.7782L95.4804 21.8078L95.2736 21.926C95.2662 21.8594 95.2441 21.8299 95.2072 21.8299L95.0816 21.9407L95.0742 21.8448L94.5795 21.8078L94.4613 21.8153L94.476 21.9998L94.7271 22.0662L94.9635 22.0516C95.0447 22.1032 95.1334 22.118 95.2367 22.1106L95.4435 22.0073L95.451 22.0885C94.2914 22.3764 94.2988 22.3248 93.5012 22.4577C93.4125 22.3987 93.3461 22.3692 93.3017 22.3764L93.2869 22.3912C93.1984 22.3838 93.1467 22.3248 93.1392 22.2287L93.5529 22.177C93.5824 22.177 93.6045 22.2067 93.8334 22.251C94.1658 22.0885 94.1806 22.0219 94.3578 22.0073L94.3431 21.8225C93.2056 22.0442 93.6637 21.8963 92.2383 22.0219L92.1717 22.0293L92.157 21.8448C93.9886 21.6231 93.3756 21.7487 94.0033 21.5715C94.0107 21.6379 94.033 21.6674 94.0699 21.6674C94.1372 21.5987 94.2255 21.5545 94.3209 21.5418L94.4465 21.5346C95.089 21.4828 95.3033 21.6084 96.5736 21.2539L96.5808 21.3352L96.7877 21.2317L96.9797 21.217C96.965 21.0323 97.2457 21.0028 97.3416 20.9953L97.3269 20.7959C95.0965 21.2465 94.5129 21.1209 93.8926 21.2983L93.8851 21.217C93.3017 21.3203 93.2797 21.276 93.1318 21.2834C93.0875 21.2909 93.0211 21.3278 92.9472 21.4016C92.9398 21.3352 92.9177 21.3055 92.8734 21.3055C92.8511 21.3055 92.8439 21.3129 92.8365 21.3129L90.9457 21.6231C90.9385 21.5715 90.9162 21.5418 90.8718 21.5493C89.8896 21.7561 90.1554 21.793 88.8408 21.9112C88.7818 21.9186 88.7006 21.9481 88.5972 22.0145C88.5898 21.9629 88.5601 21.9334 88.4937 21.9407L87.6886 22.0073L87.1496 22.1401C87.1422 22.0885 87.1127 22.0588 87.0463 22.0662C86.7433 22.1475 86.4775 22.1993 86.2633 22.2139H86.2486C86.1156 22.2287 86.315 22.177 86.2117 22.1328L86.0492 22.2287C85.8129 22.251 85.9385 22.2139 85.126 22.2213C83.7006 22.3987 83.8556 22.4207 83.7006 22.4282L83.1687 22.3912C83.1761 22.443 83.1467 22.4799 83.0875 22.4799C82.482 22.3987 82.1719 22.3026 82.1644 22.1918C82.2457 21.6159 82.3859 21.3203 82.5853 21.3055L82.6888 21.2983L82.6002 21.4903L82.7035 21.4828C82.8955 21.3793 82.9842 21.2834 82.9767 21.1948L82.9621 20.9953L82.7699 21.0102L82.7552 20.8254C82.7404 20.6852 82.7627 20.5596 82.8142 20.4563L83.25 19.7545L83.2648 19.9393L83.4717 19.9244L83.4568 19.7399L83.3386 19.57C83.4937 19.4369 83.6119 19.3631 83.708 19.3557L83.7006 19.2598L83.4199 19.2819L83.3978 19.0012C83.9592 17.8344 84.225 17.1549 84.2101 16.9629L84.4095 17.0442C84.5351 17.0368 84.5941 16.9629 84.5869 16.8299L84.3947 16.8448L84.3875 16.7635C84.3738 16.6287 84.3994 16.4927 84.4613 16.3721C84.764 16.0545 84.9045 15.7369 84.8748 15.4045C84.934 15.3971 84.9634 15.4268 84.9709 15.4932C85.2295 15.3455 85.4289 14.9539 85.5765 14.3041C86.0344 13.477 86.6843 11.8225 87.5336 9.34847C89.1586 4.97621 89.092 4.51097 89.3209 3.47699L89.1289 3.49164C89.1437 3.62465 89.1142 3.75023 89.0551 3.8684C88.922 3.81664 88.8187 3.78715 88.7449 3.79457L88.7375 3.71332C88.708 3.33656 88.8631 2.88617 89.2176 2.35433L89.3062 2.34691L89.4687 2.98207L89.6607 2.96742C89.6533 2.92308 89.7051 2.67191 89.8084 2.20668C89.8009 2.11058 89.7271 2.0516 89.5795 2.04418L89.3949 2.16234C89.3801 2.02933 89.3875 1.68226 89.4095 1.12836L89.3135 1.13578C89.1511 0.973279 89.0699 0.840271 89.0625 0.729529L88.0062 0.832849C87.999 0.759021 87.9621 0.648279 87.8881 0.507849C87.8808 0.411951 88.1172 0.315857 88.6045 0.219958L88.8187 0.301208L89.0181 0.183044C89.0256 0.249451 89.0625 0.278943 89.1363 0.271521L89.3357 0.153357C89.3431 0.219958 89.3801 0.249451 89.4539 0.242029L89.55 0.234607L89.5351 0.0205444C89.3875 0.0351929 88.9961 0.0351929 88.3756 0.0131226L88.1761 0.14613L88.1687 0.0279663C83.2131 0.434021 80.3992 0.663123 79.7271 0.729529C79.6385 0.736951 79.2914 0.729529 78.6785 0.714685C78.6857 0.795935 78.6119 0.840271 78.4642 0.855115L78.25 0.759021L77.5263 0.943787C77.3564 0.958435 77.0683 0.951013 76.6695 0.906677C76.5588 0.995349 76.4258 1.04711 76.2633 1.06195C76.1748 1.06918 77.3195 1.00277 78.383 0.928943C78.2722 1.01761 78.1023 1.06918 77.866 1.09144C77.7035 1.10609 77.5633 1.08402 77.4451 1.01761C77.2826 1.09144 76.7582 1.20961 75.8793 1.38676L75.6652 1.30551L72.2088 1.83734C72.0758 1.77093 71.9207 1.74867 71.7433 1.76351C71.5588 1.77816 71.2486 1.84476 70.8203 1.96293L69.1512 2.65707L69.2765 2.8639C69.3578 2.85648 69.476 2.81215 69.6164 2.7309L70.2072 2.78265L70.1334 3.33656C69.5869 3.58031 69.2693 3.94222 69.1806 4.40004C68.3609 4.76195 67.9547 5.02054 67.9547 5.17562L67.9621 5.27152L68.0875 5.26429L68.3092 5.14613L68.5676 5.45629L68.6045 5.88461C68.6193 6.01761 67.2383 8.91996 64.476 14.5922C62.0832 20.0575 60.8275 23.0487 60.7094 23.5877C59.8896 23.8166 59.417 24.1491 59.2765 24.5922C59.2914 24.7325 59.5351 24.8286 60.0078 24.8655L60.0299 25.0795L59.8158 25.434L59.8527 25.8625C59.8748 26.084 60.473 26.2539 61.6474 26.3721C61.64 26.2983 61.6769 26.2539 61.7582 26.2465C61.7802 26.5123 61.7064 27.0293 61.5365 27.7975L61.6621 27.7901C62.1496 27.1254 62.3785 26.6674 62.3564 26.4164L62.4597 26.409C62.5779 26.4016 62.7035 26.5346 62.8511 26.8225C62.7035 26.8817 62.1865 28.0559 61.3002 30.3528L61.4258 30.5596L61.5513 30.5522C62.6371 27.8049 63.3166 26.2834 63.597 25.9953C65.0226 25.8698 67.4892 25.6188 70.99 25.242L71.2117 25.109C71.2189 25.183 71.2633 25.22 71.3445 25.2125L71.5736 25.1903L71.7951 25.0575C71.8025 25.1313 71.8468 25.1682 71.9281 25.1608L74.5795 24.9319C75.281 24.8727 75.6135 24.6586 75.5838 24.2967C75.5765 24.2006 75.99 24.0899 76.8246 23.9717C76.9058 23.9643 77.024 23.9866 77.1865 24.0381C77.1791 23.9717 77.6002 23.9053 78.4422 23.8315C78.4642 23.3883 78.6045 23.152 78.8556 23.1297L78.8336 22.9157C78.5972 22.9377 78.3312 22.9969 78.0211 23.1002C77.4672 23.0707 77.1127 23.0264 76.965 22.9746C76.8172 23.0559 76.7064 23.1002 76.6252 23.1077L74.7789 23.1666L74.5572 23.2848C74.5498 23.2184 74.5056 23.1889 74.4244 23.1963L74.3209 23.2036L74.0845 23.3219C74.0771 23.2553 73.8851 23.2036 73.5011 23.152L73.2648 23.2922L72.807 23.3291L72.7996 23.211C75.1777 22.9526 76.3519 22.6276 76.3224 22.2436C76.4775 22.2287 76.5588 22.3026 76.5734 22.4577L77.2677 22.2805L77.2457 22.0662L71.5513 22.2213C71.5588 22.2952 71.5219 22.3395 71.4406 22.3469L70.7463 22.2879C70.5691 22.3026 70.4215 22.3543 70.3033 22.443L70.0447 22.3469C69.3283 22.4061 68.7965 22.4946 68.442 22.6055C67.9547 22.5686 67.4154 22.5758 66.8172 22.6276L65.5396 22.7383L64.9488 22.6719C64.9191 22.2952 65.6504 20.4414 67.157 17.118C67.5928 15.9953 67.9916 15.2938 68.3756 15.028C68.4568 15.0205 68.575 15.05 68.7375 15.1164L69.6459 14.8063L70.1111 14.8801C70.8941 14.8137 71.8025 14.5922 72.8439 14.208C73.1023 14.186 73.2943 14.2008 73.4347 14.2598L74.1289 14.0973L76.1968 13.92C77.0758 13.8461 78.0285 13.6541 79.0625 13.3366L79.0402 13.1225C78.6562 13.1594 78.4568 13.0928 78.4422 12.9377C78.4199 12.6498 78.1392 12.5315 77.6002 12.5758L77.5779 12.3618L78.1467 12.1993L79.6385 12.0737L79.6164 11.8596C79.5572 11.8668 79.2545 11.8596 78.6931 11.8373L78.6711 11.6084L79.247 11.5567C79.4021 11.542 79.4687 11.468 79.4539 11.3203C78.6785 11.3424 78.2869 11.3055 78.2797 11.2022C72.8734 11.468 70.1629 11.5198 70.1482 11.3498C70.067 11.3573 69.956 11.409 69.8084 11.4977L69.6681 11.276C71.1008 8.23324 71.9427 6.69691 72.1865 6.67484C72.1939 6.793 72.1347 6.985 72.0092 7.24359L72.0166 7.33949L72.2457 7.31742C72.8142 5.95843 73.2943 5.25687 73.6931 5.22738C75.3918 5.07953 73.4568 4.96879 77.0906 4.40004C77.2383 4.46664 77.3416 4.49613 77.4154 4.48871C78.8408 4.20062 80.8275 3.89789 83.3756 3.58773L83.3607 3.37347L82.0019 3.49906L81.9871 3.2848C82.1496 3.27015 82.2826 3.2184 82.3933 3.12972L82.4008 3.24789C82.4746 3.24066 82.5779 3.1889 82.7109 3.10023C82.9472 3.07816 83.1244 3.10023 83.25 3.16664C83.7226 3.04125 84.1068 2.96722 84.3875 2.93773L85.2367 2.85648C85.4435 2.72367 85.5396 2.60551 85.5322 2.49457L85.5248 2.39867C85.3105 2.42074 85.067 2.40609 84.7789 2.35433C84.7715 2.23617 84.8304 2.15492 84.9709 2.11801L86.5513 1.97035L87.2752 1.78558C87.2826 1.86683 87.3195 1.89633 87.3785 1.89633C87.4523 1.8891 87.5558 1.83734 87.6886 1.74867C87.7258 1.75609 87.7699 1.75609 87.8068 1.76351C87.7109 1.96293 87.6002 2.25101 87.4892 2.62758L87.2826 2.64242C87.2677 2.50199 87.2308 2.3764 87.1644 2.26566L87.0609 2.27308C85.1408 7.62015 84.284 10.1092 82.5115 14.2155C82.1865 15.2643 81.9133 15.8477 81.6769 15.9733C81.6843 16.0914 81.7582 16.1504 81.8838 16.1358C81.9281 16.6528 81.8099 17.1623 81.5219 17.6645C80.7019 20.028 80.1554 21.3203 79.8748 21.5567L80.0595 22.6719C80.0668 22.7901 80.0078 22.8565 79.8822 22.8713L79.6902 22.8862C79.6607 22.5758 79.5498 22.4282 79.3506 22.4504L79.247 22.4577C78.9959 22.8491 78.8039 23.2996 78.6785 23.8241L78.8705 23.8092C79.1289 23.6395 79.247 23.4401 79.225 23.211L79.609 23.1741L79.8304 23.2553C79.6533 23.536 79.5721 23.7577 79.5869 23.9274L79.6902 24.1047L79.439 24.6955L79.4465 24.7916C79.6681 24.7694 79.9117 24.8432 80.1703 24.9983C80.3474 24.9836 80.5396 24.9024 80.7537 24.7619C80.9754 24.7399 81.8025 24.7325 83.2279 24.7325L83.9443 24.4887C84.8158 24.4813 84.956 24.5036 85.7094 24.4369L86.0195 24.4075L86.182 24.2967L86.1894 24.3928C86.9797 24.3262 87.0314 24.378 87.6517 24.4518L87.6592 24.5479L87.2234 24.5848L87.2383 24.7694C87.3711 24.7545 87.4892 24.7176 87.5853 24.6364C87.6961 24.6291 87.7625 24.6881 87.7699 24.8211C87.5927 24.8358 87.3933 24.8801 87.1717 24.9539L86.9797 24.8875C86.6769 24.9688 86.7433 24.9909 86.5365 25.0057L86.2338 24.9467C86.2412 24.9983 86.2117 25.0352 86.1599 25.0352C86.1674 25.1534 86.2338 25.2125 86.3445 25.2051L86.6547 25.1756L88.2722 25.0352L88.8851 24.9024C88.8926 24.9539 88.9146 24.9836 88.9664 24.9762L89.2619 24.8655L89.8158 24.8211C90.2441 24.7842 90.2367 24.7545 91.1674 24.6069C91.1599 24.5479 91.182 24.5256 91.2263 24.5182L91.2338 24.5994C92.7478 24.3411 92.8437 24.3262 93.0875 24.245L93.1097 24.2893C93.4863 24.2006 93.2722 24.2229 93.3756 24.1491C93.383 24.2155 93.4051 24.245 93.442 24.245L93.708 24.2229L93.6931 24.0235L93.1541 24.0161L93.1467 24.0012C93.1244 24.0086 93.1097 24.0086 93.0875 24.0161H93.0136V24.0309C92.6517 24.1047 92.6443 24.053 92.408 24.0752L91.0564 24.1491L91.0492 24.053L91.8025 23.9496L92.0758 23.9274L92.2308 23.8166L92.2383 23.9127C93.3017 23.8241 93.6783 24.0899 98.597 23.0412C98.8631 23.019 98.8408 22.7975 99.0107 22.3395C98.9207 22.3457 98.8308 22.3252 98.7523 22.2805C98.3461 22.4356 98.1318 22.3618 97.349 22.4873C97.2826 22.4948 97.2308 22.4356 97.2086 22.3174L97.2011 22.2362L97.9545 22.2582C98.0949 22.2436 98.3681 22.2213 98.7744 21.9924C98.7744 22.0588 98.6193 22.0957 98.7078 22.0885H98.708ZM62.3416 22.6719L61.9945 22.7014C61.9797 22.5612 62.1644 22.0293 62.5484 21.1209L62.7773 21.0989C62.7847 21.3129 62.6443 21.8373 62.3416 22.6719ZM62.7627 20.9879L62.7552 20.892C62.7478 20.7739 62.8217 20.6926 62.9842 20.6557L62.9916 20.7516C62.999 20.892 62.925 20.9733 62.7627 20.9879ZM67.3785 24.5551L67.3859 24.6512L66.8099 24.703L66.8025 24.6069L67.3785 24.5551ZM66.6843 24.4961C66.6918 24.6143 66.5144 24.7473 66.1304 24.8801L65.4213 24.8286L65.1924 24.8506L65.1703 24.6364L66.6843 24.4961ZM71.3519 3.01156L71.0049 3.04125L70.9974 2.92308C70.99 2.80492 71.0566 2.72367 71.2043 2.68676L71.3299 2.67933L71.5662 2.77523C71.5734 2.91566 71.507 2.99691 71.3519 3.01156ZM76.6326 1.97758L76.7433 1.97035L76.7582 2.18441L76.4406 2.2139C76.4332 2.09574 76.4922 2.01468 76.6326 1.97758ZM75.3031 2.44301L74.7789 2.38383L74.7715 2.28793C75.4584 2.22875 75.6873 2.15492 76.1082 2.03676C76.1156 2.11801 76.1894 2.1475 76.3224 2.13285L76.3371 2.34691L76.1304 2.36918C75.9679 2.38383 75.8275 2.36176 75.7094 2.29515C75.5838 2.3764 75.451 2.42816 75.3031 2.44301ZM75.9605 4.3559L75.9531 4.2598L76.8025 4.17855L76.8099 4.27465L75.9605 4.3559ZM76.8689 3.61722L76.8615 3.49906L77.2752 3.46215L77.2826 3.58031L76.8689 3.61722ZM76.965 2.16976L76.8541 2.17699L76.9502 1.94808L77.8955 1.85941L77.9029 1.97758C77.6592 1.99984 77.3416 2.06625 76.965 2.16976ZM77.4451 4.20804L77.4302 3.99398L77.8439 3.95707C77.9842 3.94222 78.058 4.00863 78.0654 4.15648L77.4451 4.20804ZM79.9486 0.795935L79.417 0.943787L79.3209 0.951013C79.0699 0.973279 78.7449 0.965857 78.3607 0.928943C79.0476 0.884607 79.7051 0.832849 79.9486 0.795935ZM79.3801 3.15941L79.3875 3.25531L78.6562 3.32191L78.6488 3.22582L79.3801 3.15941ZM80.5765 3.72797C80.5691 3.63949 80.4287 3.58031 80.1408 3.55082L79.4095 3.75765L78.8482 3.77972C78.7226 3.69105 78.6562 3.63207 78.6488 3.58773L79.2988 3.62465L80.7611 3.38832L81.507 3.41781L81.5144 3.53597C81.1451 3.57289 80.8349 3.63949 80.5765 3.72797ZM88.1023 1.78558C88.191 1.79301 88.25 1.79301 88.2722 1.79301C88.5306 1.54183 88.8187 1.34242 89.1511 1.20218C88.8851 2.36918 88.4716 3.23324 87.9029 3.79457L87.4892 3.5434C87.8365 2.66449 88.0433 2.08109 88.1023 1.78558ZM86.832 3.96429L86.9353 3.95707C86.7951 4.22289 86.6695 4.36312 86.5662 4.37054L86.5439 4.08988C86.6105 4.08988 86.7064 4.04554 86.832 3.96429ZM86.0123 5.92152C86.2117 5.12386 86.4037 4.67347 86.5808 4.55531L86.5883 4.65121C86.4849 5.38968 86.3224 5.78129 86.1082 5.81078L86.1451 6.27601C85.9679 6.52718 85.8867 6.71918 85.8939 6.86683L85.7906 6.87426L85.7316 6.23168C85.8498 6.21703 85.9457 6.11351 86.0123 5.92152ZM85.6947 6.985C85.7019 7.09574 85.6281 7.35433 85.4804 7.75316L85.3771 7.76058L85.3549 7.47992C85.4953 7.15492 85.6135 6.99242 85.6945 6.985H85.6947ZM79.7345 24.2819L79.7271 24.2006L79.9191 24.186L79.9414 24.4666C79.8379 24.4741 79.764 24.4149 79.7345 24.2819ZM88.25 24.5035C88.2426 24.4369 88.2131 24.4075 88.1467 24.4149L87.6666 24.4592L87.6592 24.3631H87.7035L88.8408 24.2672L88.8482 24.3631C88.516 24.378 88.3166 24.4297 88.25 24.5035ZM87.6814 24.2672C87.7258 24.2893 87.7035 24.3116 87.6814 24.3262C87.6592 24.3188 87.6297 24.2967 87.6814 24.2672ZM87.7404 22.9377L87.1052 22.9895L87.0978 22.8934L87.674 22.8418L88.1761 22.7162C88.1836 22.7752 88.2131 22.7975 88.2797 22.7901C88.8779 22.6868 88.8187 22.6571 89.1068 22.635C89.2027 22.6276 89.2619 22.6868 89.2693 22.8049L87.7404 22.9377ZM89.9635 22.7457C89.609 22.7088 89.5869 22.6793 89.3357 22.7014L89.3283 22.6202L89.897 22.5686L89.9045 22.6498C89.8453 22.6571 90.0595 22.6719 89.9635 22.7457ZM90.0078 22.6424L90.0004 22.5612L90.3105 22.5315L90.3179 22.6127L90.0078 22.6424ZM90.6947 22.5832L90.6873 22.502C90.739 22.4948 90.8129 22.4577 90.9088 22.3838C91.0638 22.3692 91.1451 22.4725 91.1599 22.5907L90.6947 22.5832ZM91.5736 22.4725L91.5662 22.3764L91.9427 22.3469L91.9502 22.443L91.5736 22.4725ZM92.0978 22.4282C92.0906 22.3174 92.1347 22.251 92.2308 22.2362L92.3564 22.3987C92.349 22.3469 92.3711 22.3174 92.4154 22.31L92.5115 22.4873L92.0978 22.4282ZM99.3652 21.5715L99.3726 21.5641V21.5567C99.3726 21.5567 99.3652 21.5641 99.3652 21.5715ZM99.4982 21.4754C99.5572 21.4385 99.5869 21.4016 99.4465 21.3795C99.3801 21.4534 99.5203 21.4754 99.3726 21.4828L99.3801 21.5493C99.3947 21.5346 99.4318 21.5123 99.4613 21.4903L99.3801 21.5567V21.5641L99.225 21.7635L99.5351 21.6528H99.572L99.5572 21.468L99.4982 21.4754ZM100.037 21.8965L99.9783 21.9037L99.9929 22.0885L100.429 22.0516C100.421 21.9334 100.133 21.8965 100.037 21.8965Z"/></svg>