<svg width="101" height="88" viewBox="0 0 101 88" fill="none" xmlns="http://www.w3.org/2000/svg">
<path d="M30.9399 31.5504L49.9126 20.5965C50.146 20.4617 50.4107 20.3907 50.6802 20.3907C50.9497 20.3907 51.2144 20.4617 51.4478 20.5965L70.4205 31.5504C70.6538 31.6852 70.8475 31.8789 70.9823 32.1123C71.117 32.3456 71.188 32.6103 71.1881 32.8797V54.7875C71.1881 55.3355 70.8951 55.8422 70.4205 56.1168L51.4478 67.0707C51.2144 67.2055 50.9497 67.2764 50.6802 67.2764C50.4107 67.2764 50.146 67.2055 49.9126 67.0707L30.9399 56.1168C30.7066 55.982 30.5129 55.7883 30.3781 55.5549C30.2434 55.3216 30.1724 55.0569 30.1724 54.7875V32.8793C30.1728 32.3309 30.4653 31.8246 30.9399 31.55" fill="#8080F2"/>
<path d="M99.8666 42.0383L77.1736 2.5589C76.3494 1.13156 74.8267 0.0784302 73.1783 0.0784302H27.7919C26.1434 0.0784302 24.62 1.13156 23.7958 2.5589L1.10315 41.9512C0.27893 43.3789 0.27893 45.1809 1.10315 46.6086L23.7958 85.7645C24.62 87.1919 26.1434 87.9216 27.7919 87.9216H73.1779C74.8263 87.9216 76.3494 87.2138 77.1732 85.786L99.8662 46.5664C100.691 45.1395 100.691 43.4656 99.8662 42.0383H99.8666ZM81.0756 61.0227C81.0756 61.6028 80.7264 62.1399 80.2232 62.4305L51.3173 79.1075C51.0684 79.2501 50.7866 79.3251 50.4997 79.3251C50.2129 79.3251 49.931 79.2501 49.6822 79.1075L20.754 62.4305C20.2512 62.1399 19.8993 61.6032 19.8993 61.0223V27.6675C19.8993 27.0867 20.2462 26.5504 20.7493 26.2597L49.6536 9.58236C49.9024 9.43952 50.1842 9.36436 50.471 9.36436C50.7579 9.36436 51.0397 9.43952 51.2884 9.58236L80.2182 26.2597C80.7217 26.5504 81.0756 27.0867 81.0756 27.6675V61.0223V61.0227Z" fill="#4B32C3"/>
</svg>
