<svg width="101" height="100" viewBox="0 0 101 100" fill="none" xmlns="http://www.w3.org/2000/svg">
<path d="M50.1241 74.4375C72.2479 104.597 93.8991 66.0195 93.8671 42.8203C93.83 15.3922 66.0292 0.0625 50.1061 0.0625C24.5483 0.0621094 0.208862 21.1844 0.208862 50.0844C0.208862 82.207 28.1093 100 50.1061 100C45.1284 99.2832 28.5397 95.7289 28.3171 57.5207C28.1667 31.6793 36.7467 21.3547 50.0702 25.8965C50.3686 26.007 64.7663 31.6867 64.7663 50.2402C64.7663 68.7152 50.1241 74.4371 50.1241 74.4371V74.4375Z" fill="url(#paint0_linear_301_8226)"/>
<path d="M50.0984 25.8753C35.4796 20.8367 17.5714 32.8855 17.5714 57.0183C17.5714 96.4233 46.7718 99.9999 50.3117 99.9999C75.8695 99.9999 100.209 78.8773 100.209 49.9777C100.209 17.855 72.3085 0.0620779 50.3117 0.0620779C56.4042 -0.781672 83.1496 6.65582 83.1496 43.2097C83.1496 67.048 63.1792 80.0253 50.1902 74.4808C49.8917 74.3702 35.4937 68.6905 35.4937 50.137C35.4937 31.6617 50.0984 25.8753 50.0984 25.8753Z" fill="url(#paint1_linear_301_8226)"/>
<defs>
<linearGradient id="paint0_linear_301_8226" x1="14.9984" y1="14.7903" x2="89.6977" y2="80.3966" gradientUnits="userSpaceOnUse">
<stop/>
<stop offset="1" stop-color="white"/>
</linearGradient>
<linearGradient id="paint1_linear_301_8226" x1="85.4466" y1="85.2369" x2="4.59549" y2="30.0244" gradientUnits="userSpaceOnUse">
<stop/>
<stop offset="1" stop-color="white"/>
</linearGradient>
</defs>
</svg>
