<svg xmlns="http://www.w3.org/2000/svg" width="1440" height="862" fill="none" viewBox="0 0 1440 862"><rect width="1" height="152" fill="url(#paint0_linear_149_35642)" opacity=".07" transform="matrix(1 0 0 -1 1343 276)"/><rect width="1" height="694" fill="url(#paint1_linear_149_35642)" opacity=".2" transform="matrix(0 1 1 0 746 123)"/><rect width="1" height="152" x="96" y="710" fill="url(#paint2_linear_149_35642)" opacity=".07"/><rect width="1" height="448" x="448" y="813" fill="url(#paint3_linear_149_35642)" opacity=".3" transform="rotate(90 448 813)"/><rect width="1" height="448" x="448" y="335" fill="url(#paint4_linear_149_35642)" opacity=".4" transform="rotate(90 448 335)"/><rect width="1" height="448" x="736" y="550" fill="url(#paint5_linear_149_35642)" opacity=".3" transform="rotate(90 736 550)"/><rect width="1" height="177" fill="url(#paint6_linear_149_35642)" opacity=".4" transform="matrix(0 1 1 0 1263 732)"/><rect width="1" height="448" fill="url(#paint7_linear_149_35642)" opacity=".4" transform="matrix(0 1 1 0 992 415)"/><rect width="1" height="526" fill="url(#paint8_linear_149_35642)" opacity=".3" transform="matrix(1 0 0 -1 1263 862)"/><rect width="1" height="240" fill="url(#paint9_linear_149_35642)" opacity=".3" transform="matrix(1 0 0 -1 927 240)"/><rect width="1" height="418" fill="url(#paint10_linear_149_35642)" opacity=".3" transform="matrix(1 0 0 -1 989 862)"/><rect width="1" height="391" fill="url(#paint11_linear_149_35642)" opacity=".5" transform="matrix(1 0 0 -1 451 862)"/><defs><linearGradient id="paint0_linear_149_35642" x1=".5" x2=".5" y1="0" y2="152" gradientUnits="userSpaceOnUse"><stop stop-color="#ACC8FF" stop-opacity="0"/><stop offset="1" stop-color="#ACC8FF"/></linearGradient><linearGradient id="paint1_linear_149_35642" x1=".5" x2=".5" y1="0" y2="694" gradientUnits="userSpaceOnUse"><stop stop-color="#ACC8FF" stop-opacity="0"/><stop offset="1" stop-color="#ACC8FF"/></linearGradient><linearGradient id="paint2_linear_149_35642" x1="96.5" x2="96.5" y1="710" y2="862" gradientUnits="userSpaceOnUse"><stop stop-color="#ACC8FF" stop-opacity="0"/><stop offset="1" stop-color="#ACC8FF"/></linearGradient><linearGradient id="paint3_linear_149_35642" x1="448.5" x2="448.5" y1="813" y2="1261" gradientUnits="userSpaceOnUse"><stop stop-color="#ACC8FF" stop-opacity="0"/><stop offset="1" stop-color="#ACC8FF"/></linearGradient><linearGradient id="paint4_linear_149_35642" x1="448.5" x2="448.5" y1="335" y2="783" gradientUnits="userSpaceOnUse"><stop stop-color="#ADC3FF" stop-opacity="0"/><stop offset=".719" stop-color="#ACC8FF"/><stop offset="1" stop-color="#ACC8FF" stop-opacity="0"/></linearGradient><linearGradient id="paint5_linear_149_35642" x1="736.5" x2="736.5" y1="550" y2="998" gradientUnits="userSpaceOnUse"><stop stop-color="#ADC3FF" stop-opacity="0"/><stop offset=".719" stop-color="#ACC8FF"/><stop offset="1" stop-color="#ACC8FF" stop-opacity="0"/></linearGradient><linearGradient id="paint6_linear_149_35642" x1=".5" x2=".5" y1="0" y2="177" gradientUnits="userSpaceOnUse"><stop stop-color="#ADC3FF" stop-opacity="0"/><stop offset=".719" stop-color="#ACC8FF"/><stop offset="1" stop-color="#ACC8FF" stop-opacity="0"/></linearGradient><linearGradient id="paint7_linear_149_35642" x1=".5" x2=".5" y1="0" y2="448" gradientUnits="userSpaceOnUse"><stop stop-color="#ADC3FF" stop-opacity="0"/><stop offset=".719" stop-color="#ACC8FF"/><stop offset="1" stop-color="#ACC8FF" stop-opacity="0"/></linearGradient><linearGradient id="paint8_linear_149_35642" x1=".5" x2=".5" y1="0" y2="526" gradientUnits="userSpaceOnUse"><stop stop-color="#ADC3FF" stop-opacity="0"/><stop offset=".719" stop-color="#ACC8FF"/><stop offset="1" stop-color="#ACC8FF" stop-opacity="0"/></linearGradient><linearGradient id="paint9_linear_149_35642" x1=".5" x2=".5" y1="0" y2="240" gradientUnits="userSpaceOnUse"><stop stop-color="#ADC3FF" stop-opacity="0"/><stop offset=".719" stop-color="#ACC8FF"/><stop offset="1" stop-color="#ACC8FF" stop-opacity="0"/></linearGradient><linearGradient id="paint10_linear_149_35642" x1=".5" x2=".5" y1="0" y2="418" gradientUnits="userSpaceOnUse"><stop stop-color="#ADC3FF" stop-opacity="0"/><stop offset=".719" stop-color="#ACC8FF"/><stop offset="1" stop-color="#ACC8FF" stop-opacity="0"/></linearGradient><linearGradient id="paint11_linear_149_35642" x1=".5" x2=".5" y1="0" y2="391" gradientUnits="userSpaceOnUse"><stop stop-color="#ADC3FF" stop-opacity="0"/><stop offset=".719" stop-color="#ACC8FF"/><stop offset="1" stop-color="#ACC8FF" stop-opacity="0"/></linearGradient></defs></svg>