<svg width="1440" height="862" viewBox="0 0 1440 862" fill="none" xmlns="http://www.w3.org/2000/svg">
<rect opacity="0.07" width="1" height="152" transform="matrix(1 0 0 -1 1343 276)" fill="url(#paint0_linear_149_35642)"/>
<rect opacity="0.2" width="1" height="694" transform="matrix(0 1 1 0 746 123)" fill="url(#paint1_linear_149_35642)"/>
<rect opacity="0.07" x="96" y="710" width="1" height="152" fill="url(#paint2_linear_149_35642)"/>
<rect opacity="0.3" x="448" y="813" width="1" height="448" transform="rotate(90 448 813)" fill="url(#paint3_linear_149_35642)"/>
<rect opacity="0.4" x="448" y="335" width="1" height="448" transform="rotate(90 448 335)" fill="url(#paint4_linear_149_35642)"/>
<rect opacity="0.3" x="736" y="550" width="1" height="448" transform="rotate(90 736 550)" fill="url(#paint5_linear_149_35642)"/>
<rect opacity="0.4" width="1" height="177" transform="matrix(0 1 1 0 1263 732)" fill="url(#paint6_linear_149_35642)"/>
<rect opacity="0.4" width="1" height="448" transform="matrix(0 1 1 0 992 415)" fill="url(#paint7_linear_149_35642)"/>
<rect opacity="0.3" width="1" height="526" transform="matrix(1 0 0 -1 1263 862)" fill="url(#paint8_linear_149_35642)"/>
<rect opacity="0.3" width="1" height="240" transform="matrix(1 0 0 -1 927 240)" fill="url(#paint9_linear_149_35642)"/>
<rect opacity="0.3" width="1" height="418" transform="matrix(1 0 0 -1 989 862)" fill="url(#paint10_linear_149_35642)"/>
<rect opacity="0.5" width="1" height="391" transform="matrix(1 0 0 -1 451 862)" fill="url(#paint11_linear_149_35642)"/>
<defs>
<linearGradient id="paint0_linear_149_35642" x1="0.5" y1="0" x2="0.5" y2="152" gradientUnits="userSpaceOnUse">
<stop stop-color="#ACC8FF" stop-opacity="0"/>
<stop offset="1" stop-color="#ACC8FF"/>
</linearGradient>
<linearGradient id="paint1_linear_149_35642" x1="0.5" y1="0" x2="0.5" y2="694" gradientUnits="userSpaceOnUse">
<stop stop-color="#ACC8FF" stop-opacity="0"/>
<stop offset="1" stop-color="#ACC8FF"/>
</linearGradient>
<linearGradient id="paint2_linear_149_35642" x1="96.5" y1="710" x2="96.5" y2="862" gradientUnits="userSpaceOnUse">
<stop stop-color="#ACC8FF" stop-opacity="0"/>
<stop offset="1" stop-color="#ACC8FF"/>
</linearGradient>
<linearGradient id="paint3_linear_149_35642" x1="448.5" y1="813" x2="448.5" y2="1261" gradientUnits="userSpaceOnUse">
<stop stop-color="#ACC8FF" stop-opacity="0"/>
<stop offset="1" stop-color="#ACC8FF"/>
</linearGradient>
<linearGradient id="paint4_linear_149_35642" x1="448.5" y1="335" x2="448.5" y2="783" gradientUnits="userSpaceOnUse">
<stop stop-color="#ADC3FF" stop-opacity="0"/>
<stop offset="0.71875" stop-color="#ACC8FF"/>
<stop offset="1" stop-color="#ACC8FF" stop-opacity="0"/>
</linearGradient>
<linearGradient id="paint5_linear_149_35642" x1="736.5" y1="550" x2="736.5" y2="998" gradientUnits="userSpaceOnUse">
<stop stop-color="#ADC3FF" stop-opacity="0"/>
<stop offset="0.71875" stop-color="#ACC8FF"/>
<stop offset="1" stop-color="#ACC8FF" stop-opacity="0"/>
</linearGradient>
<linearGradient id="paint6_linear_149_35642" x1="0.5" y1="0" x2="0.5" y2="177" gradientUnits="userSpaceOnUse">
<stop stop-color="#ADC3FF" stop-opacity="0"/>
<stop offset="0.71875" stop-color="#ACC8FF"/>
<stop offset="1" stop-color="#ACC8FF" stop-opacity="0"/>
</linearGradient>
<linearGradient id="paint7_linear_149_35642" x1="0.5" y1="0" x2="0.5" y2="448" gradientUnits="userSpaceOnUse">
<stop stop-color="#ADC3FF" stop-opacity="0"/>
<stop offset="0.71875" stop-color="#ACC8FF"/>
<stop offset="1" stop-color="#ACC8FF" stop-opacity="0"/>
</linearGradient>
<linearGradient id="paint8_linear_149_35642" x1="0.5" y1="0" x2="0.5" y2="526" gradientUnits="userSpaceOnUse">
<stop stop-color="#ADC3FF" stop-opacity="0"/>
<stop offset="0.71875" stop-color="#ACC8FF"/>
<stop offset="1" stop-color="#ACC8FF" stop-opacity="0"/>
</linearGradient>
<linearGradient id="paint9_linear_149_35642" x1="0.5" y1="0" x2="0.5" y2="240" gradientUnits="userSpaceOnUse">
<stop stop-color="#ADC3FF" stop-opacity="0"/>
<stop offset="0.71875" stop-color="#ACC8FF"/>
<stop offset="1" stop-color="#ACC8FF" stop-opacity="0"/>
</linearGradient>
<linearGradient id="paint10_linear_149_35642" x1="0.5" y1="0" x2="0.5" y2="418" gradientUnits="userSpaceOnUse">
<stop stop-color="#ADC3FF" stop-opacity="0"/>
<stop offset="0.71875" stop-color="#ACC8FF"/>
<stop offset="1" stop-color="#ACC8FF" stop-opacity="0"/>
</linearGradient>
<linearGradient id="paint11_linear_149_35642" x1="0.5" y1="0" x2="0.5" y2="391" gradientUnits="userSpaceOnUse">
<stop stop-color="#ADC3FF" stop-opacity="0"/>
<stop offset="0.71875" stop-color="#ACC8FF"/>
<stop offset="1" stop-color="#ACC8FF" stop-opacity="0"/>
</linearGradient>
</defs>
</svg>
