<svg width="86" height="18" viewBox="0 0 86 18" fill="none" xmlns="http://www.w3.org/2000/svg">
<g id="Logo" clip-path="url(#clip0_57_1224)">
<g id="teamble">
<path d="M5.37717 2.07036V5.65088H7.78595V8.52503H5.37717V13.5426C5.37717 14.59 5.8638 14.931 6.78838 14.931C7.17768 14.931 7.61564 14.8823 7.78595 14.8336V17.5129C7.49398 17.6346 6.91003 17.8051 5.96112 17.8051C3.62533 17.8051 2.16547 16.4168 2.16547 14.1028V8.52503H0V5.65088H0.608278C1.8735 5.65088 2.45744 4.82273 2.45744 3.75101V2.07036H5.37717Z" fill="#336BFF"/>
<path d="M12.0462 10.2788H17.399C17.3504 9.08525 16.5718 7.9161 14.7226 7.9161C13.0438 7.9161 12.1192 9.18268 12.0462 10.2788ZM17.7153 13.3965L20.4161 14.2003C19.8078 16.2706 17.91 18 14.9659 18C11.6812 18 8.78581 15.6373 8.78581 11.594C8.78581 7.76996 11.6082 5.28552 14.6739 5.28552C18.3723 5.28552 20.5864 7.64817 20.5864 11.4966C20.5864 11.9594 20.5377 12.4465 20.5377 12.4953H11.9732C12.0462 14.0785 13.3844 15.2233 14.9902 15.2233C16.4988 15.2233 17.326 14.4682 17.7153 13.3965Z" fill="#336BFF"/>
<path d="M25.2515 11.594C25.2515 13.7618 26.4924 15.1746 28.2442 15.1746C29.9231 15.1746 31.1883 13.7862 31.1883 11.594C31.1883 9.40189 29.9474 8.11096 28.2442 8.11096C26.5167 8.11096 25.2515 9.40189 25.2515 11.594ZM31.2126 16.1488V16.0027C30.7017 17.1475 29.4608 17.9756 27.8549 17.9756C24.3269 17.9756 21.9911 15.2233 21.9911 11.594C21.9911 8.0866 24.2783 5.30988 27.7576 5.30988C29.8987 5.30988 30.8963 6.45467 31.1883 7.13667V5.65088H34.327V15.4668C34.327 16.5386 34.4 17.3667 34.4243 17.6346H31.3343C31.2856 17.3667 31.2126 16.7334 31.2126 16.1488Z" fill="#336BFF"/>
<path d="M39.3223 17.6346H36.0863V5.65088H39.1763V7.11231C39.8333 5.94317 41.3661 5.30988 42.68 5.30988C44.3102 5.30988 45.6241 6.01624 46.2323 7.30717C47.1812 5.84574 48.4465 5.30988 50.028 5.30988C52.2421 5.30988 54.3589 6.64953 54.3589 9.86468V17.6346H51.2202V10.5223C51.2202 9.23139 50.5876 8.2571 49.1034 8.2571C47.7165 8.2571 46.8893 9.32882 46.8893 10.6198V17.6346H43.6776V10.5223C43.6776 9.23139 43.0206 8.2571 41.5608 8.2571C40.1496 8.2571 39.3223 9.30447 39.3223 10.6198V17.6346Z" fill="#336BFF"/>
<path d="M59.0729 17.6346H55.9342V0H59.1215V6.96617C59.6568 6.11367 60.9707 5.33424 62.7469 5.33424C66.2506 5.33424 68.27 8.03789 68.27 11.594C68.27 15.2233 66.0316 17.9269 62.6252 17.9269C60.9707 17.9269 59.7055 17.1962 59.0729 16.1732V17.6346ZM65.034 11.6184C65.034 9.42625 63.7201 8.23275 62.0656 8.23275C60.4354 8.23275 59.0729 9.42625 59.0729 11.6184C59.0729 13.7862 60.4354 15.0284 62.0656 15.0284C63.7201 15.0284 65.034 13.8106 65.034 11.6184Z" fill="#336BFF"/>
<path d="M72.8517 17.6346H69.6157V0H72.8517V17.6346Z" fill="#336BFF"/>
<path d="M77.4598 10.2788H82.8126C82.764 9.08525 81.9854 7.9161 80.1362 7.9161C78.4574 7.9161 77.5328 9.18268 77.4598 10.2788ZM83.1289 13.3965L85.8297 14.2003C85.2214 16.2706 83.3236 18 80.3795 18C77.0948 18 74.1994 15.6373 74.1994 11.594C74.1994 7.76996 77.0218 5.28552 80.0875 5.28552C83.7859 5.28552 86 7.64817 86 11.4966C86 11.9594 85.9513 12.4465 85.9513 12.4953H77.3868C77.4598 14.0785 78.798 15.2233 80.4038 15.2233C81.9124 15.2233 82.7396 14.4682 83.1289 13.3965Z" fill="#336BFF"/>
</g>
</g>
<defs>
<clipPath id="clip0_57_1224">
<rect width="86" height="18" fill="white"/>
</clipPath>
</defs>
</svg>
