<svg xmlns="http://www.w3.org/2000/svg" width="156" height="33" viewBox="0 0 156 33" fill="none"><path d="M32.5707 0.490205V26.3741L32.5812 26.3854L26.1043 32.8623L26.0871 32.8451H0.215881L0.215882 6.96118H0.228021L6.68683 0.502374V0.490204L32.5707 0.490205Z" fill="#EEEAE4"></path><path d="M44.362 5.07286V0.163984H70.1533V5.07286H60.1619V32.4899H54.3534V5.07286H44.362ZM80.9812 0.163984V32.4899H75.1253V0.163984H80.9812ZM87.3225 32.4899V0.163984H108.031V5.07286H93.1784V13.8488H106.611V18.7577H93.1784V32.4899H87.3225ZM119.222 0.163984V32.4899H113.366V0.163984H119.222ZM152.128 0.163984V32.4899H146.92L131.688 10.471H131.419V32.4899H125.564V0.163984H130.804L146.02 22.1987H146.304V0.163984H152.128Z" fill="#EEEAE4"></path></svg>