<svg xmlns="http://www.w3.org/2000/svg" xmlns:xlink="http://www.w3.org/1999/xlink" id="visual" width="900" height="600" version="1.1" viewBox="0 0 900 600"><rect width="900" height="600" x="0" y="0" fill="#023"/><path fill="#06F" stroke-linecap="round" stroke-linejoin="miter" d="M0 420L21.5 435.3C43 450.7 86 481.3 128.8 473.8C171.7 466.3 214.3 420.7 257.2 408.3C300 396 343 417 385.8 441.3C428.7 465.7 471.3 493.3 514.2 502.8C557 512.3 600 503.7 642.8 490.2C685.7 476.7 728.3 458.3 771.2 448.3C814 438.3 857 436.7 878.5 435.8L900 435L900 601L878.5 601C857 601 814 601 771.2 601C728.3 601 685.7 601 642.8 601C600 601 557 601 514.2 601C471.3 601 428.7 601 385.8 601C343 601 300 601 257.2 601C214.3 601 171.7 601 128.8 601C86 601 43 601 21.5 601L0 601Z"/></svg>