<svg id="visual" viewBox="0 0 900 600" width="900" height="600" xmlns="http://www.w3.org/2000/svg" xmlns:xlink="http://www.w3.org/1999/xlink" version="1.1"><rect x="0" y="0" width="900" height="600" fill="#001220"></rect><path d="M0 407L21.5 404.3C43 401.7 86 396.3 128.8 395.8C171.7 395.3 214.3 399.7 257.2 406.5C300 413.3 343 422.7 385.8 418.3C428.7 414 471.3 396 514.2 382.5C557 369 600 360 642.8 370.8C685.7 381.7 728.3 412.3 771.2 423.7C814 435 857 427 878.5 423L900 419L900 601L878.5 601C857 601 814 601 771.2 601C728.3 601 685.7 601 642.8 601C600 601 557 601 514.2 601C471.3 601 428.7 601 385.8 601C343 601 300 601 257.2 601C214.3 601 171.7 601 128.8 601C86 601 43 601 21.5 601L0 601Z" fill="#8c26b3"></path><path d="M0 410L21.5 421.5C43 433 86 456 128.8 453.8C171.7 451.7 214.3 424.3 257.2 421C300 417.7 343 438.3 385.8 440.2C428.7 442 471.3 425 514.2 428.5C557 432 600 456 642.8 462.3C685.7 468.7 728.3 457.3 771.2 450.5C814 443.7 857 441.3 878.5 440.2L900 439L900 601L878.5 601C857 601 814 601 771.2 601C728.3 601 685.7 601 642.8 601C600 601 557 601 514.2 601C471.3 601 428.7 601 385.8 601C343 601 300 601 257.2 601C214.3 601 171.7 601 128.8 601C86 601 43 601 21.5 601L0 601Z" fill="#9938c4"></path><path d="M0 496L21.5 486.2C43 476.3 86 456.7 128.8 454.7C171.7 452.7 214.3 468.3 257.2 470.2C300 472 343 460 385.8 462.7C428.7 465.3 471.3 482.7 514.2 481.7C557 480.7 600 461.3 642.8 459.2C685.7 457 728.3 472 771.2 476.8C814 481.7 857 476.3 878.5 473.7L900 471L900 601L878.5 601C857 601 814 601 771.2 601C728.3 601 685.7 601 642.8 601C600 601 557 601 514.2 601C471.3 601 428.7 601 385.8 601C343 601 300 601 257.2 601C214.3 601 171.7 601 128.8 601C86 601 43 601 21.5 601L0 601Z" fill="#a649d6"></path><path d="M0 518L21.5 515.2C43 512.3 86 506.7 128.8 508.8C171.7 511 214.3 521 257.2 518.3C300 515.7 343 500.3 385.8 492.7C428.7 485 471.3 485 514.2 492.8C557 500.7 600 516.3 642.8 525.7C685.7 535 728.3 538 771.2 530C814 522 857 503 878.5 493.5L900 484L900 601L878.5 601C857 601 814 601 771.2 601C728.3 601 685.7 601 642.8 601C600 601 557 601 514.2 601C471.3 601 428.7 601 385.8 601C343 601 300 601 257.2 601C214.3 601 171.7 601 128.8 601C86 601 43 601 21.5 601L0 601Z" fill="#b359e8"></path><path d="M0 570L21.5 567.2C43 564.3 86 558.7 128.8 552.3C171.7 546 214.3 539 257.2 538.7C300 538.3 343 544.7 385.8 545C428.7 545.3 471.3 539.7 514.2 538C557 536.3 600 538.7 642.8 542.8C685.7 547 728.3 553 771.2 554C814 555 857 551 878.5 549L900 547L900 601L878.5 601C857 601 814 601 771.2 601C728.3 601 685.7 601 642.8 601C600 601 557 601 514.2 601C471.3 601 428.7 601 385.8 601C343 601 300 601 257.2 601C214.3 601 171.7 601 128.8 601C86 601 43 601 21.5 601L0 601Z" fill="#c169fa"></path></svg>