<svg xmlns="http://www.w3.org/2000/svg" width="120" height="24" fill="none" viewBox="0 0 120 24"><path fill="#A4ACBC" fill-rule="evenodd" d="M2 0H26V24H2V0ZM9.03906 5.84009L13.1991 13.6V18.64H14.7991V13.68L18.9591 5.84009H17.1991L14.7991 10.72C14.6391 10.96 14.4791 11.2 14.3991 11.44C14.353 11.6242 14.2805 11.7554 14.2119 11.8793C14.1614 11.9707 14.113 12.0582 14.0791 12.16C14.0391 12.12 14.0191 12.06 13.9991 12C13.9791 11.94 13.9591 11.88 13.9191 11.84C13.8791 11.76 13.8591 11.7 13.8391 11.64C13.8191 11.58 13.7991 11.52 13.7591 11.44V11.36L13.6791 11.28C13.6485 11.2189 13.6296 11.1695 13.6135 11.1273C13.5874 11.0589 13.5685 11.0095 13.5191 10.96C13.4391 10.88 13.3591 10.8 13.3591 10.72L10.9591 5.84009H9.03906Z" clip-rule="evenodd"/><path fill="#A4ACBC" d="M36.96 4.64001C38.16 4.64001 39.2 4.96001 40 5.60001L39.2 6.56002C38.48 6.08002 37.76 5.76001 36.88 5.76001C35.52 5.76001 34.48 6.48001 33.92 7.84001C33.6 8.63997 33.44 9.67998 33.44 11.04C33.44 12.08 33.6 12.96 33.84 13.6C34.48 15.12 35.52 15.84 37.12 15.84C38 15.84 38.8 15.6 39.52 15.04L40.32 16.08C39.28 16.72 38.16 17.04 36.96 17.04C35.52 17.04 34.32 16.48 33.36 15.28C32.4 14.16 32 12.64 32 10.8C32 8.95997 32.48 7.52002 33.44 6.32001C34.32 5.28001 35.52 4.64001 36.96 4.64001Z"/><path fill="#A4ACBC" d="M41.5195 12.56C41.5195 11.12 41.8395 10 42.5595 9.20003C43.2795 8.40003 44.1595 7.92004 45.2795 7.92004C46.5595 7.92004 47.5995 8.40003 48.3195 9.44003C48.8795 10.24 49.1195 11.36 49.1195 12.72C49.1195 14.32 48.6395 15.6 47.7595 16.4C47.1195 16.96 46.3195 17.28 45.3595 17.28C44.1595 17.28 43.2795 16.88 42.5595 16C41.8395 15.2 41.5195 14 41.5195 12.56ZM47.1195 10.24C46.7195 9.52003 46.1595 9.12003 45.2795 9.12003C44.3995 9.12003 43.8395 9.44003 43.4395 10.08C43.1195 10.56 43.0395 11.36 43.0395 12.4C43.0395 13.76 43.1995 14.72 43.5995 15.28C43.9995 15.84 44.5595 16.16 45.3595 16.16C46.3195 16.16 46.9595 15.68 47.2795 14.8C47.4395 14.32 47.5195 13.68 47.5195 12.88C47.5995 11.68 47.4395 10.8 47.1195 10.24Z"/><path fill="#A4ACBC" d="M51.6794 10.4C51.6794 9.52003 51.5994 8.80003 51.3594 8.24003L52.7194 7.92004C52.9594 8.32003 53.0394 8.80003 53.0394 9.20003V9.28003C53.3594 8.96003 53.6794 8.64003 54.1594 8.40003C54.7194 8.08003 55.1994 7.92004 55.6794 7.92004C56.3994 7.92004 57.0394 8.24003 57.4394 8.80003C57.5194 8.96003 57.6794 9.20003 57.7594 9.36003C58.7194 8.40003 59.5994 7.92004 60.5594 7.92004C61.1994 7.92004 61.7594 8.16003 62.1594 8.56003C62.5594 9.04003 62.7994 9.60003 62.7994 10.24V16.88H61.3594V10.32C61.3594 9.44003 60.9594 9.04003 60.2394 9.04003C59.8394 9.04003 59.3594 9.20003 58.9594 9.52003C58.7994 9.68003 58.4794 9.92003 58.0794 10.24L57.9194 10.4V16.88H56.3994V10.64C56.3994 10.08 56.3194 9.68003 56.1594 9.52003C55.9194 9.28003 55.6794 9.20003 55.2794 9.20003C54.6394 9.20003 53.9194 9.60003 53.0394 10.4V16.96H51.6794V10.4Z"/><path fill="#A4ACBC" d="M65.2793 4.32L66.7193 4C66.8793 4.64 66.9593 5.36 66.9593 6.24V8.24C66.9593 8.72 66.9593 9.04 66.9593 9.2C67.7593 8.4 68.6393 8 69.5193 8C70.5593 8 71.4393 8.4 71.9993 9.2C72.6393 10 72.9593 11.12 72.9593 12.48C72.9593 13.92 72.6393 15.04 71.9993 15.92C71.3593 16.8 70.4793 17.2 69.4393 17.2C68.9593 17.2 68.5593 17.12 68.0793 16.88C67.5993 16.64 67.2793 16.4 67.0393 16.08C66.9593 16.48 66.8793 16.8 66.7993 17.04H65.4393C65.5993 16.64 65.6793 15.92 65.6793 14.8V6.4C65.5993 5.44 65.5193 4.72 65.2793 4.32ZM67.5993 9.76C67.3593 9.92 67.1193 10.16 66.9593 10.4V14.96C67.5193 15.68 68.2393 16 69.1193 16C69.8393 16 70.3993 15.76 70.7193 15.2C71.1193 14.56 71.3593 13.68 71.3593 12.4C71.3593 11.28 71.1993 10.48 70.7993 10C70.4793 9.52 69.9193 9.28 69.1193 9.28C68.6393 9.2 68.0793 9.36 67.5993 9.76Z"/><path fill="#A4ACBC" d="M75.0391 5.44001C75.0391 5.12001 75.1191 4.88001 75.3591 4.64001C75.5991 4.40001 75.8391 4.32001 76.1591 4.32001C76.4791 4.32001 76.7191 4.40001 76.9591 4.64001C77.1991 4.88001 77.2791 5.12001 77.2791 5.44001C77.2791 5.76001 77.1991 6.00001 76.9591 6.24001C76.7191 6.48001 76.4791 6.56001 76.1591 6.56001C75.8391 6.56001 75.5991 6.48001 75.3591 6.24001C75.1191 6.00001 75.0391 5.76001 75.0391 5.44001ZM75.3591 16.96V8.15999L76.7991 7.92001V16.96H75.3591Z"/><path fill="#A4ACBC" d="M79.9195 10.4C79.9195 9.76003 79.9195 9.36003 79.8395 9.20003C79.8395 8.96003 79.6795 8.72003 79.5195 8.32003L80.8795 7.92004C81.1195 8.40003 81.1995 8.80003 81.1995 9.28003C82.0796 8.40003 83.0396 7.92004 83.9996 7.92004C84.4796 7.92004 84.8796 8.00003 85.2796 8.24003C85.6796 8.48003 85.9996 8.80003 86.1596 9.20003C86.3196 9.52003 86.3996 9.84003 86.3996 10.24V16.96H85.0396V10.96C85.0396 10.24 84.9596 9.76003 84.7196 9.52003C84.4796 9.28003 84.1596 9.12003 83.7596 9.12003C83.4396 9.12003 82.9596 9.28003 82.4796 9.52003C81.9995 9.76003 81.5995 10.08 81.2795 10.4V16.96H79.9195V10.4Z"/><path fill="#A4ACBC" d="M89.6005 10.08L88.8805 9.12003C90.0805 8.32003 91.2805 7.92004 92.5605 7.92004C93.8405 7.92004 94.6405 8.40003 95.0405 9.28003C95.2005 9.60003 95.2005 10.08 95.2005 10.8V11.28L95.1205 14.16C95.1205 14.24 95.1205 14.4 95.1205 14.56C95.1205 15.04 95.1205 15.36 95.2005 15.6C95.2805 15.92 95.5205 16.16 95.8405 16.32L95.1205 17.28C94.4805 17.04 94.0805 16.64 93.9205 16C93.1205 16.8 92.2405 17.2 91.3605 17.2C90.4805 17.2 89.7605 16.96 89.2005 16.48C88.7205 16.08 88.4805 15.44 88.4805 14.64C88.4805 13.6 88.8805 12.88 89.6805 12.32C90.4805 11.76 91.6805 11.52 93.1205 11.52C93.3605 11.52 93.5205 11.52 93.7605 11.52V10.88C93.7605 10.16 93.6805 9.68003 93.4405 9.52003C93.1205 9.20003 92.8005 9.04003 92.2405 9.04003C91.7605 9.04003 91.2005 9.20003 90.5605 9.44003C90.3205 9.60003 90.0005 9.84003 89.6005 10.08ZM93.8405 14.8L93.9205 12.48C93.5205 12.48 93.2805 12.48 93.2005 12.48C91.9205 12.48 91.1205 12.72 90.6405 13.2C90.3205 13.52 90.1605 14 90.1605 14.64C90.1605 15.68 90.6405 16.24 91.6805 16.24C92.6405 16.16 93.3605 15.68 93.8405 14.8Z"/><path fill="#A4ACBC" d="M99.7592 8.15998H101.999L101.599 9.27998H99.7592V14.96C99.7592 15.44 99.8392 15.76 99.9992 16C100.159 16.16 100.479 16.32 100.879 16.32C101.199 16.32 101.519 16.24 101.759 16.16L101.919 17.04C101.439 17.28 100.959 17.36 100.399 17.36C99.0392 17.36 98.3992 16.72 98.3992 15.36V9.27998H97.1992V8.15998H98.3192V7.99998C98.3192 7.83998 98.3992 7.19998 98.4792 6.15998V5.91998L99.9192 5.59998C99.7592 6.55998 99.7592 7.43998 99.7592 8.15998Z"/><path fill="#A4ACBC" d="M103.439 12.56C103.439 11.12 103.759 10 104.479 9.20003C105.119 8.40003 106.079 7.92004 107.199 7.92004C108.479 7.92004 109.519 8.40003 110.239 9.44003C110.799 10.24 111.039 11.36 111.039 12.72C111.039 14.32 110.559 15.6 109.679 16.4C109.039 16.96 108.239 17.28 107.279 17.28C106.079 17.28 105.199 16.88 104.479 16C103.839 15.2 103.439 14 103.439 12.56ZM109.119 10.24C108.719 9.52003 108.159 9.12003 107.279 9.12003C106.399 9.12003 105.839 9.44003 105.439 10.08C105.119 10.56 105.039 11.36 105.039 12.4C105.039 13.76 105.199 14.72 105.599 15.28C105.999 15.84 106.559 16.16 107.359 16.16C108.319 16.16 108.959 15.68 109.279 14.8C109.439 14.32 109.519 13.68 109.519 12.88C109.519 11.68 109.359 10.8 109.119 10.24Z"/><path fill="#A4ACBC" d="M113.679 10.24C113.679 9.44003 113.599 8.80003 113.359 8.32003L114.719 7.92004C114.959 8.40003 115.039 8.80003 115.039 9.28003V9.44003C115.759 8.48003 116.559 8.00003 117.519 8.00003C117.679 8.00003 117.839 8.00003 117.999 8.08003L117.439 9.60003C117.279 9.52003 117.119 9.52003 117.039 9.52003C116.719 9.52003 116.319 9.60003 115.999 9.84003C115.679 10.08 115.359 10.32 115.199 10.64C115.119 10.88 115.039 11.2 115.039 11.6V17.12H113.679V10.24Z"/></svg>